STARTFONT 2.1
COMMENT "24-point bold 3270 font"
COMMENT "Uses nonstandard ordering:"
COMMENT " Page 0: EBCDIC US-International set, CG order"
COMMENT " Page 1: EBCDIC APL/APL2 set, CG order (incomplete)"
COMMENT " Page 2: (first 16 characters only) DEC line-drawing characters from"
COMMENT "  fixed-width X fonts"
COMMENT ""
COMMENT "Copyright (c) 1994-2009, Paul Mattes."
COMMENT "Copyright (c) 1989, Georgia Tech Research Corporation (GTRC),"
COMMENT " Atlanta, GA 30332."
COMMENT "All rights reserved."
COMMENT ""
COMMENT "Redistribution and use in source and binary forms, with or"
COMMENT "without modification, are permitted provided that the following"
COMMENT "conditions are met:"
COMMENT "    * Redistributions of source code must retain the above"
COMMENT "      copyright notice, this list of conditions and the following"
COMMENT "      disclaimer."
COMMENT "    * Redistributions in binary form must reproduce the above"
COMMENT "      copyright notice, this list of conditions and the following"
COMMENT "      disclaimer in the documentation and/or other materials"
COMMENT "      provided with the distribution."
COMMENT "    * Neither the names of Paul Mattes, GTRC nor their"
COMMENT "      contributors may be used to endorse or promote products"
COMMENT "      derived from this software without specific prior written"
COMMENT "      permission."
COMMENT ""
COMMENT "THIS SOFTWARE IS PROVIDED BY PAUL MATTES AND GTRC 'AS IS' AND"
COMMENT "ANY EXPRESS OR IMPLIED WARRANTIES, INCLUDING, BUT NOT LIMITED"
COMMENT "TO, THE IMPLIED WARRANTIES OF MERCHANTABILITY AND FITNESS FOR"
COMMENT "A PARTICULAR PURPOSE ARE DISCLAIMED. IN NO EVENT SHALL PAUL"
COMMENT "MATTES OR GTRC BE LIABLE FOR ANY DIRECT, INDIRECT, INCIDENTAL,"
COMMENT "SPECIAL, EXEMPLARY, OR CONSEQUENTIAL DAMAGES (INCLUDING, BUT"
COMMENT "NOT LIMITED TO, PROCUREMENT OF SUBSTITUTE GOODS OR SERVICES;"
COMMENT "LOSS OF USE, DATA, OR PROFITS; OR BUSINESS INTERRUPTION) HOWEVER"

STARTCHAR null
ENCODING 0
SWIDTH 563 0
DWIDTH 14 0
BBX 14 24 0 -6
BITMAP
0000
0000
0000
0000
0000
0000
0000
0000
0000
0000
0000
0000
0000
0000
0000
0000
0000
0000
0000
0000
0000
0000
0000
0000
ENDCHAR
STARTCHAR nobreakspace
ENCODING 1
SWIDTH 563 0
DWIDTH 14 0
BBX 14 24 0 -6
BITMAP
0000
0000
0000
0000
0000
0000
0000
0000
0000
0000
0000
0000
0000
0000
0000
0000
0000
0000
0000
0000
0000
0000
0000
0000
ENDCHAR
STARTCHAR euro
ENCODING 2
SWIDTH 563 0
DWIDTH 14 0
BBX 14 24 0 -6
BITMAP
0000
0000
03F0
07FC
0FFC
1E04
1C00
7FF0
FFF0
1C00
1C00
7FE0
FFC0
1C00
1E00
0FFC
07F8
03F0
0000
0000
0000
0000
0000
0000
ENDCHAR
STARTCHAR cr
ENCODING 3
SWIDTH 563 0
DWIDTH 14 0
BBX 14 24 0 -6
BITMAP
0000
0000
0000
0000
0000
0000
0000
0000
0000
0000
0000
0000
0000
0000
0000
0000
0000
0000
0000
0000
0000
0000
0000
0000
ENDCHAR
STARTCHAR nl
ENCODING 4
SWIDTH 563 0
DWIDTH 14 0
BBX 14 24 0 -6
BITMAP
0000
0000
0000
0000
0000
0000
0000
0000
0000
0000
0000
0000
0000
0000
0000
0000
0000
0000
0000
0000
0000
0000
0000
0000
ENDCHAR
STARTCHAR em
ENCODING 5
SWIDTH 563 0
DWIDTH 14 0
BBX 14 24 0 -6
BITMAP
0000
0000
0000
0000
0000
0000
0000
0000
0000
0000
0000
0000
0000
0000
0000
0000
0000
0000
0000
0000
0000
0000
0000
0000
ENDCHAR
STARTCHAR eightones
ENCODING 6
SWIDTH 563 0
DWIDTH 14 0
BBX 14 24 0 -6
BITMAP
0000
0000
0000
0000
0000
0000
0380
0fe0
0fe0
1ff0
1ff0
1ff0
0fe0
0fe0
0380
0000
0000
0000
0000
0000
0000
0000
0000
0000
ENDCHAR
STARTCHAR hyphen
ENCODING 7
SWIDTH 563 0
DWIDTH 14 0
BBX 14 24 0 -6
BITMAP
0000
0000
0000
0000
0000
0000
0000
0000
0000
0000
3ff8
3ff8
0000
0000
0000
0000
0000
0000
0000
0000
0000
0000
0000
0000
ENDCHAR
STARTCHAR greater
ENCODING 8
SWIDTH 563 0
DWIDTH 14 0
BBX 14 24 0 -6
BITMAP
0000
0000
0000
0000
0e00
0f00
0780
03c0
01e0
00f0
0078
0078
00f0
01e0
03c0
0780
0f00
0e00
0000
0000
0000
0000
0000
0000
ENDCHAR
STARTCHAR less
ENCODING 9
SWIDTH 563 0
DWIDTH 14 0
BBX 14 24 0 -6
BITMAP
0000
0000
0000
0000
00e0
01e0
03c0
0780
0f00
1e00
3c00
3c00
1e00
0f00
0780
03c0
01e0
00e0
0000
0000
0000
0000
0000
0000
ENDCHAR
STARTCHAR bracketleft
ENCODING 10
SWIDTH 563 0
DWIDTH 14 0
BBX 14 24 0 -6
BITMAP
0000
0000
0fe0
0fe0
0e00
0e00
0e00
0e00
0e00
0e00
0e00
0e00
0e00
0e00
0e00
0e00
0e00
0e00
0fe0
0fe0
0000
0000
0000
0000
ENDCHAR
STARTCHAR bracketright
ENCODING 11
SWIDTH 563 0
DWIDTH 14 0
BBX 14 24 0 -6
BITMAP
0000
0000
0fe0
0fe0
00e0
00e0
00e0
00e0
00e0
00e0
00e0
00e0
00e0
00e0
00e0
00e0
00e0
00e0
0fe0
0fe0
0000
0000
0000
0000
ENDCHAR
STARTCHAR parenright
ENCODING 12
SWIDTH 563 0
DWIDTH 14 0
BBX 14 24 0 -6
BITMAP
0000
0000
0e00
0f00
0780
03c0
01e0
00e0
00e0
00e0
00e0
00e0
00e0
00e0
00e0
01e0
03c0
0780
0f00
0e00
0000
0000
0000
0000
ENDCHAR
STARTCHAR parenleft
ENCODING 13
SWIDTH 563 0
DWIDTH 14 0
BBX 14 24 0 -6
BITMAP
0000
0000
00e0
01e0
03c0
0780
0f00
0e00
0e00
0e00
0e00
0e00
0e00
0e00
0e00
0f00
0780
03c0
01e0
00e0
0000
0000
0000
0000
ENDCHAR
STARTCHAR braceright
ENCODING 14
SWIDTH 563 0
DWIDTH 14 0
BBX 14 24 0 -6
BITMAP
0000
0000
0e00
0f00
0780
0380
0380
0380
0380
03c0
01e0
01e0
03c0
0380
0380
0380
0380
0780
0f00
0e00
0000
0000
0000
0000
ENDCHAR
STARTCHAR braceleft
ENCODING 15
SWIDTH 563 0
DWIDTH 14 0
BBX 14 24 0 -6
BITMAP
0000
0000
00e0
01e0
03c0
0380
0380
0380
0380
0780
0f00
0f00
0780
0380
0380
0380
0380
03c0
01e0
00e0
0000
0000
0000
0000
ENDCHAR
STARTCHAR space
ENCODING 16
SWIDTH 563 0
DWIDTH 14 0
BBX 14 24 0 -6
BITMAP
0000
0000
0000
0000
0000
0000
0000
0000
0000
0000
0000
0000
0000
0000
0000
0000
0000
0000
0000
0000
0000
0000
0000
0000
ENDCHAR
STARTCHAR equal
ENCODING 17
SWIDTH 563 0
DWIDTH 14 0
BBX 14 24 0 -6
BITMAP
0000
0000
0000
0000
0000
0000
0000
0000
3ff8
3ff8
0000
0000
3ff8
3ff8
0000
0000
0000
0000
0000
0000
0000
0000
0000
0000
ENDCHAR
STARTCHAR apostrophe
ENCODING 18
SWIDTH 563 0
DWIDTH 14 0
BBX 14 24 0 -6
BITMAP
0000
0000
0380
0380
0380
0380
0000
0000
0000
0000
0000
0000
0000
0000
0000
0000
0000
0000
0000
0000
0000
0000
0000
0000
ENDCHAR
STARTCHAR quotedbl
ENCODING 19
SWIDTH 563 0
DWIDTH 14 0
BBX 14 24 0 -6
BITMAP
0000
0000
0ee0
0ee0
0ee0
0ee0
0000
0000
0000
0000
0000
0000
0000
0000
0000
0000
0000
0000
0000
0000
0000
0000
0000
0000
ENDCHAR
STARTCHAR slash
ENCODING 20
SWIDTH 563 0
DWIDTH 14 0
BBX 14 24 0 -6
BITMAP
0000
0000
0038
0038
0038
0078
00f0
00e0
00e0
01e0
03c0
0380
0380
0780
0f00
0e00
0e00
1e00
3c00
3800
0000
0000
0000
0000
ENDCHAR
STARTCHAR backslash
ENCODING 21
SWIDTH 563 0
DWIDTH 14 0
BBX 14 24 0 -6
BITMAP
0000
0000
3800
3800
3800
3c00
1e00
0e00
0e00
0f00
0780
0380
0380
03c0
01e0
00e0
00e0
00f0
0078
0038
0000
0000
0000
0000
ENDCHAR
STARTCHAR bar
ENCODING 22
SWIDTH 563 0
DWIDTH 14 0
BBX 14 24 0 -6
BITMAP
0000
0000
0380
0380
0380
0380
0380
0380
0380
0380
0380
0380
0380
0380
0380
0380
0380
0380
0380
0380
0380
0380
0000
0000
ENDCHAR
STARTCHAR brokenbar
ENCODING 23
SWIDTH 563 0
DWIDTH 14 0
BBX 14 24 0 -6
BITMAP
0000
0000
0380
0380
0380
0380
0380
0380
0380
0380
0000
0000
0000
0000
0380
0380
0380
0380
0380
0380
0380
0380
0000
0000
ENDCHAR
STARTCHAR question
ENCODING 24
SWIDTH 563 0
DWIDTH 14 0
BBX 14 24 0 -6
BITMAP
0000
0000
0fe0
1ff0
3c78
3838
0038
0078
00f0
01e0
03c0
0380
0380
0380
0000
0000
0380
0380
0380
0380
0000
0000
0000
0000
ENDCHAR
STARTCHAR exclam
ENCODING 25
SWIDTH 563 0
DWIDTH 14 0
BBX 14 24 0 -6
BITMAP
0000
0000
0380
0380
0380
0380
0380
0380
0380
0380
0380
0380
0380
0380
0000
0000
0380
0380
0380
0380
0000
0000
0000
0000
ENDCHAR
STARTCHAR dollar
ENCODING 26
SWIDTH 563 0
DWIDTH 14 0
BBX 14 24 0 -6
BITMAP
0000
0000
0380
0380
0ff8
1ff8
3f80
3b80
3b80
3f80
1fe0
0ff0
03f8
03b8
03b8
03f8
3ff0
3fe0
0380
0380
0000
0000
0000
0000
ENDCHAR
STARTCHAR cent
ENCODING 27
SWIDTH 563 0
DWIDTH 14 0
BBX 14 24 0 -6
BITMAP
0000
0000
0000
0000
0380
0380
0ff8
1ff8
3f80
3b80
3b80
3f80
1ff8
0ff8
0380
0380
0000
0000
0000
0000
0000
0000
0000
0000
ENDCHAR
STARTCHAR sterling
ENCODING 28
SWIDTH 563 0
DWIDTH 14 0
BBX 14 24 0 -6
BITMAP
0000
0000
0380
07c0
0fe0
0ee0
0e00
0e00
3fe0
3fe0
0e00
0e00
0e00
0e00
0e38
1f78
3ff0
3be0
0000
0000
0000
0000
0000
0000
ENDCHAR
STARTCHAR yen
ENCODING 29
SWIDTH 563 0
DWIDTH 14 0
BBX 14 24 0 -6
BITMAP
0000
0000
3838
3c78
1ef0
0fe0
07c0
0380
3ff8
3ff8
0380
0380
3ff8
3ff8
0380
0380
0380
0380
0000
0000
0000
0000
0000
0000
ENDCHAR
STARTCHAR paragraph
ENCODING 30
SWIDTH 563 0
DWIDTH 14 0
BBX 14 24 0 -6
BITMAP
0000
0000
3f80
3fc0
39e0
38e0
38e0
39e0
3fc0
3f80
3800
3800
38e0
38e0
3bf8
3bf8
38e0
38e0
00e0
00e0
0000
0000
0000
0000
ENDCHAR
STARTCHAR currency
ENCODING 31
SWIDTH 563 0
DWIDTH 14 0
BBX 14 24 0 -6
BITMAP
0000
0000
0000
0000
3838
3c78
1ef0
0fe0
0fe0
1ff0
1c70
1c70
1ff0
0fe0
0fe0
1ef0
3c78
3838
0000
0000
0000
0000
0000
0000
ENDCHAR
STARTCHAR 0
ENCODING 32
SWIDTH 563 0
DWIDTH 14 0
BBX 14 24 0 -6
BITMAP
0000
0000
0fe0
1ff0
3c78
3838
3838
3838
3bb8
3bb8
3bb8
3bb8
3838
3838
3838
3c78
1ff0
0fe0
0000
0000
0000
0000
0000
0000
ENDCHAR
STARTCHAR 1
ENCODING 33
SWIDTH 563 0
DWIDTH 14 0
BBX 14 24 0 -6
BITMAP
0000
0000
00e0
01e0
03e0
07e0
0fe0
0ee0
00e0
00e0
00e0
00e0
00e0
00e0
00e0
00e0
00e0
00e0
0000
0000
0000
0000
0000
0000
ENDCHAR
STARTCHAR 2
ENCODING 34
SWIDTH 563 0
DWIDTH 14 0
BBX 14 24 0 -6
BITMAP
0000
0000
0fe0
1ff0
3c78
3838
0038
0038
0038
0078
00f0
01e0
03c0
0780
0f00
1e00
3ff8
3ff8
0000
0000
0000
0000
0000
0000
ENDCHAR
STARTCHAR 3
ENCODING 35
SWIDTH 563 0
DWIDTH 14 0
BBX 14 24 0 -6
BITMAP
0000
0000
3ff8
3ff8
0038
0078
00f0
01e0
03e0
07f0
0078
0038
0038
0038
0038
0078
3ff0
3fe0
0000
0000
0000
0000
0000
0000
ENDCHAR
STARTCHAR 4
ENCODING 36
SWIDTH 563 0
DWIDTH 14 0
BBX 14 24 0 -6
BITMAP
0000
0000
03e0
03e0
03e0
07e0
0fe0
0ee0
0ee0
1ee0
3ce0
38e0
3ff8
3ff8
00e0
00e0
00e0
00e0
0000
0000
0000
0000
0000
0000
ENDCHAR
STARTCHAR 5
ENCODING 37
SWIDTH 563 0
DWIDTH 14 0
BBX 14 24 0 -6
BITMAP
0000
0000
3ff8
3ff8
3800
3800
3800
3800
3fe0
3ff0
0078
0038
0038
0038
0038
0078
3ff0
3fe0
0000
0000
0000
0000
0000
0000
ENDCHAR
STARTCHAR 6
ENCODING 38
SWIDTH 563 0
DWIDTH 14 0
BBX 14 24 0 -6
BITMAP
0000
0000
0380
0780
0f00
1e00
3c00
3800
3fe0
3ff0
3c78
3838
3838
3838
3838
3c78
1ff0
0fe0
0000
0000
0000
0000
0000
0000
ENDCHAR
STARTCHAR 7
ENCODING 39
SWIDTH 563 0
DWIDTH 14 0
BBX 14 24 0 -6
BITMAP
0000
0000
3ff8
3ff8
0038
0078
00f0
01e0
03c0
0780
0f00
0e00
0e00
0e00
0e00
0e00
0e00
0e00
0000
0000
0000
0000
0000
0000
ENDCHAR
STARTCHAR 8
ENCODING 40
SWIDTH 563 0
DWIDTH 14 0
BBX 14 24 0 -6
BITMAP
0000
0000
0fe0
1ff0
3c78
3838
3838
3c78
1ff0
1ff0
3c78
3838
3838
3838
3838
3c78
1ff0
0fe0
0000
0000
0000
0000
0000
0000
ENDCHAR
STARTCHAR 9
ENCODING 41
SWIDTH 563 0
DWIDTH 14 0
BBX 14 24 0 -6
BITMAP
0000
0000
0fe0
1ff0
3c78
3838
3838
3878
38f8
3df8
1ff8
0fb8
0038
0038
0038
0078
00f0
00e0
0000
0000
0000
0000
0000
0000
ENDCHAR
STARTCHAR ssharp
ENCODING 42
SWIDTH 563 0
DWIDTH 14 0
BBX 14 24 0 -6
BITMAP
0000
0000
0f80
1fc0
3de0
38e0
38e0
39e0
3b80
3fc0
39e0
38f0
3878
3c38
3e38
3f78
3ff0
3be0
0000
0000
0000
0000
0000
0000
ENDCHAR
STARTCHAR section
ENCODING 43
SWIDTH 563 0
DWIDTH 14 0
BBX 14 24 0 -6
BITMAP
0000
0000
03e0
07e0
0f00
0e00
0e00
1f00
3f80
3bc0
39e0
3cf0
1e78
0f38
07b8
03f8
01f0
00e0
00e0
01e0
0fc0
0f80
0000
0000
ENDCHAR
STARTCHAR numbersign
ENCODING 44
SWIDTH 563 0
DWIDTH 14 0
BBX 14 24 0 -6
BITMAP
0000
0000
0000
0000
0ee0
0ee0
3ff8
3ff8
0ee0
0ee0
3ff8
3ff8
0ee0
0ee0
0000
0000
0000
0000
0000
0000
0000
0000
0000
0000
ENDCHAR
STARTCHAR at
ENCODING 45
SWIDTH 563 0
DWIDTH 14 0
BBX 14 24 0 -6
BITMAP
0000
0000
0fe0
1ff0
3c78
3838
3bb8
3ff8
3ff8
3ff8
3ff0
3be0
3800
3800
3800
3c00
1ff8
0ff8
0000
0000
0000
0000
0000
0000
ENDCHAR
STARTCHAR percent
ENCODING 46
SWIDTH 563 0
DWIDTH 14 0
BBX 14 24 0 -6
BITMAP
0000
0000
0e00
1f00
3b80
3b80
1f38
0e78
00f0
01e0
03c0
0780
0f00
1e00
3ce0
39f0
03b8
03b8
01f0
00e0
0000
0000
0000
0000
ENDCHAR
STARTCHAR underscore
ENCODING 47
SWIDTH 563 0
DWIDTH 14 0
BBX 14 24 0 -6
BITMAP
0000
0000
0000
0000
0000
0000
0000
0000
0000
0000
0000
0000
0000
0000
0000
0000
0000
0000
3ff8
3ff8
0000
0000
0000
0000
ENDCHAR
STARTCHAR ampersand
ENCODING 48
SWIDTH 563 0
DWIDTH 14 0
BBX 14 24 0 -6
BITMAP
0000
0000
0e00
1f00
3f80
3b80
3b80
3f80
1f00
1e00
3e00
3f00
3fb8
3ff8
39f0
3ce0
1ff0
0ff8
003c
001c
0000
0000
0000
0000
ENDCHAR
STARTCHAR minus
ENCODING 49
SWIDTH 563 0
DWIDTH 14 0
BBX 14 24 0 -6
BITMAP
0000
0000
0000
0000
0000
0000
0000
0000
0000
0000
3ff8
3ff8
0000
0000
0000
0000
0000
0000
0000
0000
0000
0000
0000
0000
ENDCHAR
STARTCHAR period
ENCODING 50
SWIDTH 563 0
DWIDTH 14 0
BBX 14 24 0 -6
BITMAP
0000
0000
0000
0000
0000
0000
0000
0000
0000
0000
0000
0000
0000
0000
0000
0000
0380
0380
0380
0380
0000
0000
0000
0000
ENDCHAR
STARTCHAR comma
ENCODING 51
SWIDTH 563 0
DWIDTH 14 0
BBX 14 24 0 -6
BITMAP
0000
0000
0000
0000
0000
0000
0000
0000
0000
0000
0000
0000
0000
0000
0000
0000
0380
0380
0380
0780
0f00
0e00
0000
0000
ENDCHAR
STARTCHAR colon
ENCODING 52
SWIDTH 563 0
DWIDTH 14 0
BBX 14 24 0 -6
BITMAP
0000
0000
0000
0000
0000
0000
0000
0000
0380
0380
0380
0380
0000
0000
0000
0000
0380
0380
0380
0380
0000
0000
0000
0000
ENDCHAR
STARTCHAR plus
ENCODING 53
SWIDTH 563 0
DWIDTH 14 0
BBX 14 24 0 -6
BITMAP
0000
0000
0000
0000
0000
0000
0380
0380
0380
0380
3ff8
3ff8
0380
0380
0380
0380
0000
0000
0000
0000
0000
0000
0000
0000
ENDCHAR
STARTCHAR notsign
ENCODING 54
SWIDTH 563 0
DWIDTH 14 0
BBX 14 24 0 -6
BITMAP
0000
0000
3ff8
3ff8
0038
0038
0038
0038
0000
0000
0000
0000
0000
0000
0000
0000
0000
0000
0000
0000
0000
0000
0000
0000
ENDCHAR
STARTCHAR macron
ENCODING 55
SWIDTH 563 0
DWIDTH 14 0
BBX 14 24 0 -6
BITMAP
0000
0000
0000
0000
3ff8
3ff8
0000
0000
0000
0000
0000
0000
0000
0000
0000
0000
0000
0000
0000
0000
0000
0000
0000
0000
ENDCHAR
STARTCHAR degree
ENCODING 56
SWIDTH 563 0
DWIDTH 14 0
BBX 14 24 0 -6
BITMAP
0000
0000
07c0
0fe0
0ee0
0ee0
0fe0
07c0
0000
0000
0000
0000
0000
0000
0000
0000
0000
0000
0000
0000
0000
0000
0000
0000
ENDCHAR
STARTCHAR periodcentered
ENCODING 57
SWIDTH 563 0
DWIDTH 14 0
BBX 14 24 0 -6
BITMAP
0000
0000
0000
0000
0000
0000
0000
0000
0380
0380
0380
0380
0000
0000
0000
0000
0000
0000
0000
0000
0000
0000
0000
0000
ENDCHAR
STARTCHAR asciicircum
ENCODING 58
SWIDTH 563 0
DWIDTH 14 0
BBX 14 24 0 -6
BITMAP
0380
07c0
0fe0
0ee0
0000
0000
0000
0000
0000
0000
0000
0000
0000
0000
0000
0000
0000
0000
0000
0000
0000
0000
0000
0000
ENDCHAR
STARTCHAR asciitilde
ENCODING 59
SWIDTH 563 0
DWIDTH 14 0
BBX 14 24 0 -6
BITMAP
0f38
1ff8
3ff0
39e0
0000
0000
0000
0000
0000
0000
0000
0000
0000
0000
0000
0000
0000
0000
0000
0000
0000
0000
0000
0000
ENDCHAR
STARTCHAR diaeresis
ENCODING 60
SWIDTH 563 0
DWIDTH 14 0
BBX 14 24 0 -6
BITMAP
0000
0000
0ee0
0ee0
0000
0000
0000
0000
0000
0000
0000
0000
0000
0000
0000
0000
0000
0000
0000
0000
0000
0000
0000
0000
ENDCHAR
STARTCHAR grave
ENCODING 61
SWIDTH 563 0
DWIDTH 14 0
BBX 14 24 0 -6
BITMAP
0e00
0f00
0780
0380
0000
0000
0000
0000
0000
0000
0000
0000
0000
0000
0000
0000
0000
0000
0000
0000
0000
0000
0000
0000
ENDCHAR
STARTCHAR acute
ENCODING 62
SWIDTH 563 0
DWIDTH 14 0
BBX 14 24 0 -6
BITMAP
00e0
01e0
03c0
0380
0000
0000
0000
0000
0000
0000
0000
0000
0000
0000
0000
0000
0000
0000
0000
0000
0000
0000
0000
0000
ENDCHAR
STARTCHAR cedilla
ENCODING 63
SWIDTH 563 0
DWIDTH 14 0
BBX 14 24 0 -6
BITMAP
0000
0000
0000
0000
0000
0000
0000
0000
0000
0000
0000
0000
0000
0000
0000
0000
0000
0000
0380
0380
0f80
0f00
0000
0000
ENDCHAR
STARTCHAR agrave
ENCODING 64
SWIDTH 563 0
DWIDTH 14 0
BBX 14 24 0 -6
BITMAP
0000
0000
0e00
0f00
0780
0380
0000
0000
0fe0
0ff0
0078
0038
0ff8
1ff8
3c38
3c38
1ff8
0ff8
0000
0000
0000
0000
0000
0000
ENDCHAR
STARTCHAR egrave
ENCODING 65
SWIDTH 563 0
DWIDTH 14 0
BBX 14 24 0 -6
BITMAP
0000
0000
0e00
0f00
0780
0380
0000
0000
0fe0
1ff0
3c78
3838
3ff8
3ff8
3800
3c00
1fe0
0fe0
0000
0000
0000
0000
0000
0000
ENDCHAR
STARTCHAR igrave
ENCODING 66
SWIDTH 563 0
DWIDTH 14 0
BBX 14 24 0 -6
BITMAP
0000
0000
0e00
0f00
0780
0380
0000
0000
0380
0380
0380
0380
0380
0380
0380
0380
0380
0380
0000
0000
0000
0000
0000
0000
ENDCHAR
STARTCHAR ograve
ENCODING 67
SWIDTH 563 0
DWIDTH 14 0
BBX 14 24 0 -6
BITMAP
0000
0000
0e00
0f00
0780
0380
0000
0000
0fe0
1ff0
3c78
3838
3838
3838
3838
3c78
1ff0
0fe0
0000
0000
0000
0000
0000
0000
ENDCHAR
STARTCHAR ugrave
ENCODING 68
SWIDTH 563 0
DWIDTH 14 0
BBX 14 24 0 -6
BITMAP
0000
0000
0e00
0f00
0780
0380
0000
0000
3838
3838
3838
3838
3838
3838
3838
3c78
1ff8
0ff8
0000
0000
0000
0000
0000
0000
ENDCHAR
STARTCHAR atilde
ENCODING 69
SWIDTH 563 0
DWIDTH 14 0
BBX 14 24 0 -6
BITMAP
0000
0000
0f38
1ff8
3ff0
39e0
0000
0000
0fe0
0ff0
0078
0038
0ff8
1ff8
3c38
3c38
1ff8
0ff8
0000
0000
0000
0000
0000
0000
ENDCHAR
STARTCHAR otilde
ENCODING 70
SWIDTH 563 0
DWIDTH 14 0
BBX 14 24 0 -6
BITMAP
0000
0000
0f38
1ff8
3ff0
39e0
0000
0000
0fe0
1ff0
3c78
3838
3838
3838
3838
3c78
1ff0
0fe0
0000
0000
0000
0000
0000
0000
ENDCHAR
STARTCHAR ydiaeresis
ENCODING 71
SWIDTH 563 0
DWIDTH 14 0
BBX 14 24 0 -6
BITMAP
0000
0000
0000
0000
0ee0
0ee0
0000
0000
3838
3838
3838
3838
3838
3838
3838
3c78
1ff8
0ff8
0038
0078
0ff0
0fe0
0000
0000
ENDCHAR
STARTCHAR Yacute
ENCODING 72
SWIDTH 563 0
DWIDTH 14 0
BBX 14 24 0 -6
BITMAP
00e0
01e0
03c0
0380
3838
3838
3838
3c78
1ef0
0fe0
07c0
0380
0380
0380
0380
0380
0380
0380
0000
0000
0000
0000
0000
0000
ENDCHAR
STARTCHAR yacute
ENCODING 73
SWIDTH 563 0
DWIDTH 14 0
BBX 14 24 0 -6
BITMAP
0000
0000
00e0
01e0
03c0
0380
0000
0000
3838
3838
3838
3838
3838
3838
3838
3c78
1ff8
0ff8
0038
0078
0ff0
0fe0
0000
0000
ENDCHAR
STARTCHAR eacute
ENCODING 74
SWIDTH 563 0
DWIDTH 14 0
BBX 14 24 0 -6
BITMAP
0000
0000
00e0
01e0
03c0
0380
0000
0000
0fe0
1ff0
3c78
3838
3ff8
3ff8
3800
3c00
1fe0
0fe0
0000
0000
0000
0000
0000
0000
ENDCHAR
STARTCHAR onequarter
ENCODING 75
SWIDTH 563 0
DWIDTH 14 0
BBX 14 24 0 -6
BITMAP
0000
1c00
3c00
7c00
7c00
1c00
1c00
1c00
1c00
1c00
1cf0
01f0
03f0
07f0
0770
07fc
07fc
0070
0070
0070
0000
0000
0000
0000
ENDCHAR
STARTCHAR onehalf
ENCODING 76
SWIDTH 563 0
DWIDTH 14 0
BBX 14 24 0 -6
BITMAP
0000
1c00
3c00
7c00
7c00
1c00
1c00
1c00
1c00
1c00
1df0
03f8
03bc
003c
0078
00f0
01e0
03c0
03fc
03fc
0000
0000
0000
0000
ENDCHAR
STARTCHAR threequarters
ENCODING 77
SWIDTH 563 0
DWIDTH 14 0
BBX 14 24 0 -6
BITMAP
0000
7f00
7f00
0e00
1c00
3e00
0f00
0700
0700
7f00
7ef0
01f0
03f0
07f0
0770
07fc
07fc
0070
0070
0070
0000
0000
0000
0000
ENDCHAR
STARTCHAR udiaeresis
ENCODING 78
SWIDTH 563 0
DWIDTH 14 0
BBX 14 24 0 -6
BITMAP
0000
0000
0000
0000
0ee0
0ee0
0000
0000
3838
3838
3838
3838
3838
3838
3838
3c78
1ff8
0ff8
0000
0000
0000
0000
0000
0000
ENDCHAR
STARTCHAR ccedilla
ENCODING 79
SWIDTH 563 0
DWIDTH 14 0
BBX 14 24 0 -6
BITMAP
0000
0000
0000
0000
0000
0000
0000
0000
0ff8
1ff8
3c00
3800
3800
3800
3800
3c00
1ff8
0ff8
0380
0380
0f80
0f00
0000
0000
ENDCHAR
STARTCHAR adiaeresis
ENCODING 80
SWIDTH 563 0
DWIDTH 14 0
BBX 14 24 0 -6
BITMAP
0000
0000
0000
0000
0ee0
0ee0
0000
0000
0fe0
0ff0
0078
0038
0ff8
1ff8
3c38
3c38
1ff8
0ff8
0000
0000
0000
0000
0000
0000
ENDCHAR
STARTCHAR ediaeresis
ENCODING 81
SWIDTH 563 0
DWIDTH 14 0
BBX 14 24 0 -6
BITMAP
0000
0000
0000
0000
0ee0
0ee0
0000
0000
0fe0
1ff0
3c78
3838
3ff8
3ff8
3800
3c00
1fe0
0fe0
0000
0000
0000
0000
0000
0000
ENDCHAR
STARTCHAR idiaeresis
ENCODING 82
SWIDTH 563 0
DWIDTH 14 0
BBX 14 24 0 -6
BITMAP
0000
0000
0000
0000
0ee0
0ee0
0000
0000
0380
0380
0380
0380
0380
0380
0380
0380
0380
0380
0000
0000
0000
0000
0000
0000
ENDCHAR
STARTCHAR odiaeresis
ENCODING 83
SWIDTH 563 0
DWIDTH 14 0
BBX 14 24 0 -6
BITMAP
0000
0000
0000
0000
0ee0
0ee0
0000
0000
0fe0
1ff0
3c78
3838
3838
3838
3838
3c78
1ff0
0fe0
0000
0000
0000
0000
0000
0000
ENDCHAR
STARTCHAR mu
ENCODING 84
SWIDTH 563 0
DWIDTH 14 0
BBX 14 24 0 -6
BITMAP
0000
0000
0000
0000
0000
0000
0000
0000
3838
3838
3838
3838
3838
3838
3838
3c78
3ff8
3ff8
3800
3800
3800
3800
0000
0000
ENDCHAR
STARTCHAR acircumflex
ENCODING 85
SWIDTH 563 0
DWIDTH 14 0
BBX 14 24 0 -6
BITMAP
0000
0000
0380
07c0
0fe0
0ee0
0000
0000
0fe0
0ff0
0078
0038
0ff8
1ff8
3c38
3c38
1ff8
0ff8
0000
0000
0000
0000
0000
0000
ENDCHAR
STARTCHAR ecircumflex
ENCODING 86
SWIDTH 563 0
DWIDTH 14 0
BBX 14 24 0 -6
BITMAP
0000
0000
0380
07c0
0fe0
0ee0
0000
0000
0fe0
1ff0
3c78
3838
3ff8
3ff8
3800
3c00
1fe0
0fe0
0000
0000
0000
0000
0000
0000
ENDCHAR
STARTCHAR icircumflex
ENCODING 87
SWIDTH 563 0
DWIDTH 14 0
BBX 14 24 0 -6
BITMAP
0000
0000
0380
07c0
0fe0
0ee0
0000
0000
0380
0380
0380
0380
0380
0380
0380
0380
0380
0380
0000
0000
0000
0000
0000
0000
ENDCHAR
STARTCHAR ocircumflex
ENCODING 88
SWIDTH 563 0
DWIDTH 14 0
BBX 14 24 0 -6
BITMAP
0000
0000
0380
07c0
0fe0
0ee0
0000
0000
0fe0
1ff0
3c78
3838
3838
3838
3838
3c78
1ff0
0fe0
0000
0000
0000
0000
0000
0000
ENDCHAR
STARTCHAR ucircumflex
ENCODING 89
SWIDTH 563 0
DWIDTH 14 0
BBX 14 24 0 -6
BITMAP
0000
0000
0380
07c0
0fe0
0ee0
0000
0000
3838
3838
3838
3838
3838
3838
3838
3c78
1ff8
0ff8
0000
0000
0000
0000
0000
0000
ENDCHAR
STARTCHAR aacute
ENCODING 90
SWIDTH 563 0
DWIDTH 14 0
BBX 14 24 0 -6
BITMAP
0000
0000
00e0
01e0
03c0
0380
0000
0000
0fe0
0ff0
0078
0038
0ff8
1ff8
3c38
3c38
1ff8
0ff8
0000
0000
0000
0000
0000
0000
ENDCHAR
STARTCHAR multiply
ENCODING 91
SWIDTH 563 0
DWIDTH 14 0
BBX 14 24 0 -6
BITMAP
0000
0000
0000
0000
0000
3838
3c78
1ef0
0fe0
07c0
07c0
0fe0
1ef0
3c78
3838
0000
0000
0000
0000
0000
0000
0000
0000
0000
ENDCHAR
STARTCHAR iacute
ENCODING 92
SWIDTH 563 0
DWIDTH 14 0
BBX 14 24 0 -6
BITMAP
0000
0000
00e0
01e0
03c0
0380
0000
0000
0380
0380
0380
0380
0380
0380
0380
0380
0380
0380
0000
0000
0000
0000
0000
0000
ENDCHAR
STARTCHAR oacute
ENCODING 93
SWIDTH 563 0
DWIDTH 14 0
BBX 14 24 0 -6
BITMAP
0000
0000
00e0
01e0
03c0
0380
0000
0000
0fe0
1ff0
3c78
3838
3838
3838
3838
3c78
1ff0
0fe0
0000
0000
0000
0000
0000
0000
ENDCHAR
STARTCHAR uacute
ENCODING 94
SWIDTH 563 0
DWIDTH 14 0
BBX 14 24 0 -6
BITMAP
0000
0000
00e0
01e0
03c0
0380
0000
0000
3838
3838
3838
3838
3838
3838
3838
3c78
1ff8
0ff8
0000
0000
0000
0000
0000
0000
ENDCHAR
STARTCHAR ntilde
ENCODING 95
SWIDTH 563 0
DWIDTH 14 0
BBX 14 24 0 -6
BITMAP
0000
0000
0f38
1ff8
3ff0
39e0
0000
0000
3fe0
3ff0
3c78
3838
3838
3838
3838
3838
3838
3838
0000
0000
0000
0000
0000
0000
ENDCHAR
STARTCHAR Agrave
ENCODING 96
SWIDTH 563 0
DWIDTH 14 0
BBX 14 24 0 -6
BITMAP
0e00
0f00
0780
0380
0380
07c0
0fe0
1ef0
3c78
3838
3838
3838
3ff8
3ff8
3838
3838
3838
3838
0000
0000
0000
0000
0000
0000
ENDCHAR
STARTCHAR Egrave
ENCODING 97
SWIDTH 563 0
DWIDTH 14 0
BBX 14 24 0 -6
BITMAP
0e00
0f00
0780
0380
3ff8
3ff8
3800
3800
3800
3800
3fe0
3fe0
3800
3800
3800
3800
3ff8
3ff8
0000
0000
0000
0000
0000
0000
ENDCHAR
STARTCHAR Igrave
ENCODING 98
SWIDTH 563 0
DWIDTH 14 0
BBX 14 24 0 -6
BITMAP
0e00
0f00
0780
0380
0fe0
0fe0
0380
0380
0380
0380
0380
0380
0380
0380
0380
0380
0fe0
0fe0
0000
0000
0000
0000
0000
0000
ENDCHAR
STARTCHAR Ograve
ENCODING 99
SWIDTH 563 0
DWIDTH 14 0
BBX 14 24 0 -6
BITMAP
0e00
0f00
0780
0380
0fe0
1ff0
3c78
3838
3838
3838
3838
3838
3838
3838
3838
3c78
1ff0
0fe0
0000
0000
0000
0000
0000
0000
ENDCHAR
STARTCHAR Ugrave
ENCODING 100
SWIDTH 563 0
DWIDTH 14 0
BBX 14 24 0 -6
BITMAP
0e00
0f00
0780
0380
3838
3838
3838
3838
3838
3838
3838
3838
3838
3838
3838
3c78
1ff0
0fe0
0000
0000
0000
0000
0000
0000
ENDCHAR
STARTCHAR Atilde
ENCODING 101
SWIDTH 563 0
DWIDTH 14 0
BBX 14 24 0 -6
BITMAP
0f38
1ff8
3ff0
39e0
0380
07c0
0fe0
1ef0
3c78
3838
3838
3838
3ff8
3ff8
3838
3838
3838
3838
0000
0000
0000
0000
0000
0000
ENDCHAR
STARTCHAR Otilde
ENCODING 102
SWIDTH 563 0
DWIDTH 14 0
BBX 14 24 0 -6
BITMAP
0f38
1ff8
3ff0
39e0
0fe0
1ff0
3c78
3838
3838
3838
3838
3838
3838
3838
3838
3c78
1ff0
0fe0
0000
0000
0000
0000
0000
0000
ENDCHAR
STARTCHAR onesuperior
ENCODING 103
SWIDTH 563 0
DWIDTH 14 0
BBX 14 24 0 -6
BITMAP
0000
0000
01c0
03c0
07c0
07c0
01c0
01c0
01c0
01c0
01c0
01c0
0000
0000
0000
0000
0000
0000
0000
0000
0000
0000
0000
0000
ENDCHAR
STARTCHAR twosuperior
ENCODING 104
SWIDTH 563 0
DWIDTH 14 0
BBX 14 24 0 -6
BITMAP
0000
0000
07c0
0fe0
0ef0
00f0
01e0
03c0
0780
0f00
0ff0
0ff0
0000
0000
0000
0000
0000
0000
0000
0000
0000
0000
0000
0000
ENDCHAR
STARTCHAR threesuperior
ENCODING 105
SWIDTH 563 0
DWIDTH 14 0
BBX 14 24 0 -6
BITMAP
0000
0000
0ff0
0ff0
00e0
01c0
03e0
00f0
0070
0070
0ff0
0fe0
0000
0000
0000
0000
0000
0000
0000
0000
0000
0000
0000
0000
ENDCHAR
STARTCHAR ordfeminine
ENCODING 106
SWIDTH 563 0
DWIDTH 14 0
BBX 14 24 0 -6
BITMAP
0000
0000
0000
0000
0fe0
0ff0
0070
0038
0ff8
1ff8
3c38
3c38
1ff8
0ff8
0000
0000
3ff8
3ff8
0000
0000
0000
0000
0000
0000
ENDCHAR
STARTCHAR masculine
ENCODING 107
SWIDTH 563 0
DWIDTH 14 0
BBX 14 24 0 -6
BITMAP
0000
0000
0000
0000
0fe0
1ff0
3c78
3838
3838
3838
3838
3c78
1ff0
0fe0
0000
0000
3ff8
3ff8
0000
0000
0000
0000
0000
0000
ENDCHAR
STARTCHAR guillemotleft
ENCODING 108
SWIDTH 563 0
DWIDTH 14 0
BBX 14 24 0 -6
BITMAP
0000
0000
0000
0000
0000
0000
039c
07bc
0f78
1ef0
3de0
3de0
1ef0
0f78
07bc
039c
0000
0000
0000
0000
0000
0000
0000
0000
ENDCHAR
STARTCHAR guillemotright
ENCODING 109
SWIDTH 563 0
DWIDTH 14 0
BBX 14 24 0 -6
BITMAP
0000
0000
0000
0000
0000
0000
39c0
3de0
1ef0
0f78
07bc
07bc
0f78
1ef0
3de0
39c0
0000
0000
0000
0000
0000
0000
0000
0000
ENDCHAR
STARTCHAR exclamdown
ENCODING 110
SWIDTH 563 0
DWIDTH 14 0
BBX 14 24 0 -6
BITMAP
0000
0000
0380
0380
0380
0380
0000
0000
0380
0380
0380
0380
0380
0380
0380
0380
0380
0380
0380
0380
0000
0000
0000
0000
ENDCHAR
STARTCHAR questiondown
ENCODING 111
SWIDTH 563 0
DWIDTH 14 0
BBX 14 24 0 -6
BITMAP
0000
0000
0380
0380
0380
0380
0000
0000
0380
0380
0380
0780
0f00
1e00
3c00
3800
3838
3c78
1ff0
0fe0
0000
0000
0000
0000
ENDCHAR
STARTCHAR Adiaeresis
ENCODING 112
SWIDTH 563 0
DWIDTH 14 0
BBX 14 24 0 -6
BITMAP
0ee0
0ee0
0000
0000
0380
07c0
0fe0
1ef0
3c78
3838
3838
3838
3ff8
3ff8
3838
3838
3838
3838
0000
0000
0000
0000
0000
0000
ENDCHAR
STARTCHAR Ediaeresis
ENCODING 113
SWIDTH 563 0
DWIDTH 14 0
BBX 14 24 0 -6
BITMAP
0ee0
0ee0
0000
0000
3ff8
3ff8
3800
3800
3800
3800
3fe0
3fe0
3800
3800
3800
3800
3ff8
3ff8
0000
0000
0000
0000
0000
0000
ENDCHAR
STARTCHAR Idiaeresis
ENCODING 114
SWIDTH 563 0
DWIDTH 14 0
BBX 14 24 0 -6
BITMAP
0ee0
0ee0
0000
0000
0fe0
0fe0
0380
0380
0380
0380
0380
0380
0380
0380
0380
0380
0fe0
0fe0
0000
0000
0000
0000
0000
0000
ENDCHAR
STARTCHAR Odiaeresis
ENCODING 115
SWIDTH 563 0
DWIDTH 14 0
BBX 14 24 0 -6
BITMAP
0ee0
0ee0
0000
0000
0fe0
1ff0
3c78
3838
3838
3838
3838
3838
3838
3838
3838
3c78
1ff0
0fe0
0000
0000
0000
0000
0000
0000
ENDCHAR
STARTCHAR Udiaeresis
ENCODING 116
SWIDTH 563 0
DWIDTH 14 0
BBX 14 24 0 -6
BITMAP
0ee0
0ee0
0000
0000
3838
3838
3838
3838
3838
3838
3838
3838
3838
3838
3838
3c78
1ff0
0fe0
0000
0000
0000
0000
0000
0000
ENDCHAR
STARTCHAR Acircumflex
ENCODING 117
SWIDTH 563 0
DWIDTH 14 0
BBX 14 24 0 -6
BITMAP
0380
07c0
0fe0
0ee0
0380
07c0
0fe0
1ef0
3c78
3838
3838
3838
3ff8
3ff8
3838
3838
3838
3838
0000
0000
0000
0000
0000
0000
ENDCHAR
STARTCHAR Ecircumflex
ENCODING 118
SWIDTH 563 0
DWIDTH 14 0
BBX 14 24 0 -6
BITMAP
0380
07c0
0fe0
0ee0
3ff8
3ff8
3800
3800
3800
3800
3fe0
3fe0
3800
3800
3800
3800
3ff8
3ff8
0000
0000
0000
0000
0000
0000
ENDCHAR
STARTCHAR Icircumflex
ENCODING 119
SWIDTH 563 0
DWIDTH 14 0
BBX 14 24 0 -6
BITMAP
0380
07c0
0fe0
0ee0
0fe0
0fe0
0380
0380
0380
0380
0380
0380
0380
0380
0380
0380
0fe0
0fe0
0000
0000
0000
0000
0000
0000
ENDCHAR
STARTCHAR Ocircumflex
ENCODING 120
SWIDTH 563 0
DWIDTH 14 0
BBX 14 24 0 -6
BITMAP
0380
07c0
0fe0
0ee0
0fe0
1ff0
3c78
3838
3838
3838
3838
3838
3838
3838
3838
3c78
1ff0
0fe0
0000
0000
0000
0000
0000
0000
ENDCHAR
STARTCHAR Ucircumflex
ENCODING 121
SWIDTH 563 0
DWIDTH 14 0
BBX 14 24 0 -6
BITMAP
0380
07c0
0fe0
0ee0
3838
3838
3838
3838
3838
3838
3838
3838
3838
3838
3838
3c78
1ff0
0fe0
0000
0000
0000
0000
0000
0000
ENDCHAR
STARTCHAR Aacute
ENCODING 122
SWIDTH 563 0
DWIDTH 14 0
BBX 14 24 0 -6
BITMAP
00e0
01e0
03c0
0380
0380
07c0
0fe0
1ef0
3c78
3838
3838
3838
3ff8
3ff8
3838
3838
3838
3838
0000
0000
0000
0000
0000
0000
ENDCHAR
STARTCHAR Eacute
ENCODING 123
SWIDTH 563 0
DWIDTH 14 0
BBX 14 24 0 -6
BITMAP
00e0
01e0
03c0
0380
3ff8
3ff8
3800
3800
3800
3800
3fe0
3fe0
3800
3800
3800
3800
3ff8
3ff8
0000
0000
0000
0000
0000
0000
ENDCHAR
STARTCHAR Iacute
ENCODING 124
SWIDTH 563 0
DWIDTH 14 0
BBX 14 24 0 -6
BITMAP
00e0
01e0
03c0
0380
0fe0
0fe0
0380
0380
0380
0380
0380
0380
0380
0380
0380
0380
0fe0
0fe0
0000
0000
0000
0000
0000
0000
ENDCHAR
STARTCHAR Oacute
ENCODING 125
SWIDTH 563 0
DWIDTH 14 0
BBX 14 24 0 -6
BITMAP
00e0
01e0
03c0
0380
0fe0
1ff0
3c78
3838
3838
3838
3838
3838
3838
3838
3838
3c78
1ff0
0fe0
0000
0000
0000
0000
0000
0000
ENDCHAR
STARTCHAR Uacute
ENCODING 126
SWIDTH 563 0
DWIDTH 14 0
BBX 14 24 0 -6
BITMAP
00e0
01e0
03c0
0380
3838
3838
3838
3838
3838
3838
3838
3838
3838
3838
3838
3c78
1ff0
0fe0
0000
0000
0000
0000
0000
0000
ENDCHAR
STARTCHAR Ntilde
ENCODING 127
SWIDTH 563 0
DWIDTH 14 0
BBX 14 24 0 -6
BITMAP
0f38
1ff8
3ff0
39e0
3838
3c38
3e38
3f38
3fb8
3bf8
39f8
38f8
3878
3838
3838
3838
3838
3838
0000
0000
0000
0000
0000
0000
ENDCHAR
STARTCHAR a
ENCODING 128
SWIDTH 563 0
DWIDTH 14 0
BBX 14 24 0 -6
BITMAP
0000
0000
0000
0000
0000
0000
0000
0000
0fe0
0ff0
0078
0038
0ff8
1ff8
3c38
3c38
1ff8
0ff8
0000
0000
0000
0000
0000
0000
ENDCHAR
STARTCHAR b
ENCODING 129
SWIDTH 563 0
DWIDTH 14 0
BBX 14 24 0 -6
BITMAP
0000
0000
3800
3800
3800
3800
3800
3800
3fe0
3ff0
3878
3838
3838
3838
3838
3878
3ff0
3fe0
0000
0000
0000
0000
0000
0000
ENDCHAR
STARTCHAR c
ENCODING 130
SWIDTH 563 0
DWIDTH 14 0
BBX 14 24 0 -6
BITMAP
0000
0000
0000
0000
0000
0000
0000
0000
0ff8
1ff8
3c00
3800
3800
3800
3800
3c00
1ff8
0ff8
0000
0000
0000
0000
0000
0000
ENDCHAR
STARTCHAR d
ENCODING 131
SWIDTH 563 0
DWIDTH 14 0
BBX 14 24 0 -6
BITMAP
0000
0000
0038
0038
0038
0038
0038
0038
0ff8
1ff8
3c38
3838
3838
3838
3838
3c38
1ff8
0ff8
0000
0000
0000
0000
0000
0000
ENDCHAR
STARTCHAR e
ENCODING 132
SWIDTH 563 0
DWIDTH 14 0
BBX 14 24 0 -6
BITMAP
0000
0000
0000
0000
0000
0000
0000
0000
0fe0
1ff0
3c78
3838
3ff8
3ff8
3800
3c00
1fe0
0fe0
0000
0000
0000
0000
0000
0000
ENDCHAR
STARTCHAR f
ENCODING 133
SWIDTH 563 0
DWIDTH 14 0
BBX 14 24 0 -6
BITMAP
0000
0000
00f8
01f8
03c0
0380
0380
0380
3ff8
3ff8
0380
0380
0380
0380
0380
0380
0380
0380
0000
0000
0000
0000
0000
0000
ENDCHAR
STARTCHAR g
ENCODING 134
SWIDTH 563 0
DWIDTH 14 0
BBX 14 24 0 -6
BITMAP
0000
0000
0000
0000
0000
0000
0000
0000
0ff8
1ff8
3c38
3838
3838
3838
3838
3c78
1ff8
0ff8
0038
0078
0ff0
0fe0
0000
0000
ENDCHAR
STARTCHAR h
ENCODING 135
SWIDTH 563 0
DWIDTH 14 0
BBX 14 24 0 -6
BITMAP
0000
0000
3800
3800
3800
3800
3800
3800
3be0
3ff0
3f78
3e38
3c38
3838
3838
3838
3838
3838
0000
0000
0000
0000
0000
0000
ENDCHAR
STARTCHAR i
ENCODING 136
SWIDTH 563 0
DWIDTH 14 0
BBX 14 24 0 -6
BITMAP
0000
0000
0000
0000
0380
0380
0000
0000
0380
0380
0380
0380
0380
0380
0380
0380
0380
0380
0000
0000
0000
0000
0000
0000
ENDCHAR
STARTCHAR j
ENCODING 137
SWIDTH 563 0
DWIDTH 14 0
BBX 14 24 0 -6
BITMAP
0000
0000
0000
0000
0038
0038
0000
0000
0038
0038
0038
0038
0038
0038
0038
0038
0038
0038
3838
3c78
1ff0
0fe0
0000
0000
ENDCHAR
STARTCHAR k
ENCODING 138
SWIDTH 563 0
DWIDTH 14 0
BBX 14 24 0 -6
BITMAP
0000
0000
3800
3800
3800
3800
3800
3800
3838
3878
38f0
39e0
3bc0
3fc0
3fe0
3ef0
3c78
3838
0000
0000
0000
0000
0000
0000
ENDCHAR
STARTCHAR l
ENCODING 139
SWIDTH 563 0
DWIDTH 14 0
BBX 14 24 0 -6
BITMAP
0000
0000
0380
0380
0380
0380
0380
0380
0380
0380
0380
0380
0380
0380
0380
03c0
01e0
00e0
0000
0000
0000
0000
0000
0000
ENDCHAR
STARTCHAR m
ENCODING 140
SWIDTH 563 0
DWIDTH 14 0
BBX 14 24 0 -6
BITMAP
0000
0000
0000
0000
0000
0000
0000
0000
3fe0
3ff0
3ff8
3bb8
3bb8
3bb8
3bb8
3bb8
3bb8
3bb8
0000
0000
0000
0000
0000
0000
ENDCHAR
STARTCHAR n
ENCODING 141
SWIDTH 563 0
DWIDTH 14 0
BBX 14 24 0 -6
BITMAP
0000
0000
0000
0000
0000
0000
0000
0000
3fe0
3ff0
3c78
3838
3838
3838
3838
3838
3838
3838
0000
0000
0000
0000
0000
0000
ENDCHAR
STARTCHAR o
ENCODING 142
SWIDTH 563 0
DWIDTH 14 0
BBX 14 24 0 -6
BITMAP
0000
0000
0000
0000
0000
0000
0000
0000
0fe0
1ff0
3c78
3838
3838
3838
3838
3c78
1ff0
0fe0
0000
0000
0000
0000
0000
0000
ENDCHAR
STARTCHAR p
ENCODING 143
SWIDTH 563 0
DWIDTH 14 0
BBX 14 24 0 -6
BITMAP
0000
0000
0000
0000
0000
0000
0000
0000
3fe0
3ff0
3878
3838
3838
3838
3838
3878
3ff0
3fe0
3800
3800
3800
3800
0000
0000
ENDCHAR
STARTCHAR q
ENCODING 144
SWIDTH 563 0
DWIDTH 14 0
BBX 14 24 0 -6
BITMAP
0000
0000
0000
0000
0000
0000
0000
0000
0ff8
1ff8
3c38
3838
3838
3838
3838
3c78
1ff8
0ff8
0038
0038
0038
0038
0000
0000
ENDCHAR
STARTCHAR r
ENCODING 145
SWIDTH 563 0
DWIDTH 14 0
BBX 14 24 0 -6
BITMAP
0000
0000
0000
0000
0000
0000
0000
0000
3be0
3ff0
3f78
3e38
3c00
3800
3800
3800
3800
3800
0000
0000
0000
0000
0000
0000
ENDCHAR
STARTCHAR s
ENCODING 146
SWIDTH 563 0
DWIDTH 14 0
BBX 14 24 0 -6
BITMAP
0000
0000
0000
0000
0000
0000
0000
0000
0ff8
1ff8
3c00
3c00
1fe0
0ff0
0078
0078
3ff0
3fe0
0000
0000
0000
0000
0000
0000
ENDCHAR
STARTCHAR t
ENCODING 147
SWIDTH 563 0
DWIDTH 14 0
BBX 14 24 0 -6
BITMAP
0000
0000
0380
0380
0380
0380
0380
0380
3ff8
3ff8
0380
0380
0380
0380
0380
0380
03e0
01e0
0000
0000
0000
0000
0000
0000
ENDCHAR
STARTCHAR u
ENCODING 148
SWIDTH 563 0
DWIDTH 14 0
BBX 14 24 0 -6
BITMAP
0000
0000
0000
0000
0000
0000
0000
0000
3838
3838
3838
3838
3838
3838
3838
3c78
1ff8
0ff8
0000
0000
0000
0000
0000
0000
ENDCHAR
STARTCHAR v
ENCODING 149
SWIDTH 563 0
DWIDTH 14 0
BBX 14 24 0 -6
BITMAP
0000
0000
0000
0000
0000
0000
0000
0000
3838
3838
3838
3c78
1ef0
0ee0
0ee0
0fe0
07c0
0380
0000
0000
0000
0000
0000
0000
ENDCHAR
STARTCHAR w
ENCODING 150
SWIDTH 563 0
DWIDTH 14 0
BBX 14 24 0 -6
BITMAP
0000
0000
0000
0000
0000
0000
0000
0000
3838
3838
3838
3838
3bb8
3bb8
3bb8
3ff8
1ff0
0ee0
0000
0000
0000
0000
0000
0000
ENDCHAR
STARTCHAR x
ENCODING 151
SWIDTH 563 0
DWIDTH 14 0
BBX 14 24 0 -6
BITMAP
0000
0000
0000
0000
0000
0000
0000
0000
3838
3c78
1ef0
0fe0
07c0
07c0
0fe0
1ef0
3c78
3838
0000
0000
0000
0000
0000
0000
ENDCHAR
STARTCHAR y
ENCODING 152
SWIDTH 563 0
DWIDTH 14 0
BBX 14 24 0 -6
BITMAP
0000
0000
0000
0000
0000
0000
0000
0000
3838
3838
3838
3838
3838
3838
3838
3c78
1ff8
0ff8
0038
0078
0ff0
0fe0
0000
0000
ENDCHAR
STARTCHAR z
ENCODING 153
SWIDTH 563 0
DWIDTH 14 0
BBX 14 24 0 -6
BITMAP
0000
0000
0000
0000
0000
0000
0000
0000
3ff8
3ff8
00f0
01e0
03c0
0780
0f00
1e00
3ff8
3ff8
0000
0000
0000
0000
0000
0000
ENDCHAR
STARTCHAR ae
ENCODING 154
SWIDTH 563 0
DWIDTH 14 0
BBX 14 24 0 -6
BITMAP
0000
0000
0000
0000
0000
0000
0000
0000
3ff0
3ff8
03b8
03b8
1ff8
3ff8
3b80
3b80
3ff8
1ff0
0000
0000
0000
0000
0000
0000
ENDCHAR
STARTCHAR oslash
ENCODING 155
SWIDTH 563 0
DWIDTH 14 0
BBX 14 24 0 -6
BITMAP
0000
0000
0000
0000
0000
0000
0000
0000
0ff8
1ff8
3cf8
39f8
3bf8
3fb8
3f38
3e78
3ff0
3fe0
0000
0000
0000
0000
0000
0000
ENDCHAR
STARTCHAR aring
ENCODING 156
SWIDTH 563 0
DWIDTH 14 0
BBX 14 24 0 -6
BITMAP
0000
0000
0fe0
0fe0
0fe0
0fe0
0000
0000
0fe0
0ff0
0078
0038
0ff8
1ff8
3c38
3c38
1ff8
0ff8
0000
0000
0000
0000
0000
0000
ENDCHAR
STARTCHAR division
ENCODING 157
SWIDTH 563 0
DWIDTH 14 0
BBX 14 24 0 -6
BITMAP
0000
0000
0000
0000
0000
0380
0380
0380
0000
0000
3ff8
3ff8
0000
0000
0380
0380
0380
0000
0000
0000
0000
0000
0000
0000
ENDCHAR
STARTCHAR fm
ENCODING 158
SWIDTH 563 0
DWIDTH 14 0
BBX 14 24 0 -6
BITMAP
0000
0000
3ff8
3ff8
0000
0000
0000
0000
0380
0380
0380
0380
0000
0000
0000
0000
0380
0380
0380
0780
0f00
0e00
0000
0000
ENDCHAR
STARTCHAR dup
ENCODING 159
SWIDTH 563 0
DWIDTH 14 0
BBX 14 24 0 -6
BITMAP
0000
0000
3ff8
3ff8
0000
0000
0380
0380
3bb8
3ff8
1ff0
0ee0
0ee0
1ff0
3ff8
3bb8
0380
0380
0000
0000
0000
0000
0000
0000
ENDCHAR
STARTCHAR A
ENCODING 160
SWIDTH 563 0
DWIDTH 14 0
BBX 14 24 0 -6
BITMAP
0000
0000
0380
07c0
0fe0
1ef0
3c78
3838
3838
3838
3ff8
3ff8
3838
3838
3838
3838
3838
3838
0000
0000
0000
0000
0000
0000
ENDCHAR
STARTCHAR B
ENCODING 161
SWIDTH 563 0
DWIDTH 14 0
BBX 14 24 0 -6
BITMAP
0000
0000
3fe0
3ff0
3878
3838
3838
3878
3ff0
3ff0
3878
3838
3838
3838
3838
3878
3ff0
3fe0
0000
0000
0000
0000
0000
0000
ENDCHAR
STARTCHAR C
ENCODING 162
SWIDTH 563 0
DWIDTH 14 0
BBX 14 24 0 -6
BITMAP
0000
0000
03e0
07f0
0f78
1e38
3c00
3800
3800
3800
3800
3800
3800
3c00
1e38
0f78
07f0
03e0
0000
0000
0000
0000
0000
0000
ENDCHAR
STARTCHAR D
ENCODING 163
SWIDTH 563 0
DWIDTH 14 0
BBX 14 24 0 -6
BITMAP
0000
0000
3fe0
3ff0
3878
3838
3838
3838
3838
3838
3838
3838
3838
3838
3838
3878
3ff0
3fe0
0000
0000
0000
0000
0000
0000
ENDCHAR
STARTCHAR E
ENCODING 164
SWIDTH 563 0
DWIDTH 14 0
BBX 14 24 0 -6
BITMAP
0000
0000
3ff8
3ff8
3800
3800
3800
3800
3fe0
3fe0
3800
3800
3800
3800
3800
3800
3ff8
3ff8
0000
0000
0000
0000
0000
0000
ENDCHAR
STARTCHAR F
ENCODING 165
SWIDTH 563 0
DWIDTH 14 0
BBX 14 24 0 -6
BITMAP
0000
0000
3ff8
3ff8
3800
3800
3800
3800
3fe0
3fe0
3800
3800
3800
3800
3800
3800
3800
3800
0000
0000
0000
0000
0000
0000
ENDCHAR
STARTCHAR G
ENCODING 166
SWIDTH 563 0
DWIDTH 14 0
BBX 14 24 0 -6
BITMAP
0000
0000
0fe0
1ff0
3c78
3838
3800
3800
38f8
38f8
3838
3838
3838
3838
3838
3c78
1ff8
0ff0
0000
0000
0000
0000
0000
0000
ENDCHAR
STARTCHAR H
ENCODING 167
SWIDTH 563 0
DWIDTH 14 0
BBX 14 24 0 -6
BITMAP
0000
0000
3838
3838
3838
3838
3838
3838
3ff8
3ff8
3838
3838
3838
3838
3838
3838
3838
3838
0000
0000
0000
0000
0000
0000
ENDCHAR
STARTCHAR I
ENCODING 168
SWIDTH 563 0
DWIDTH 14 0
BBX 14 24 0 -6
BITMAP
0000
0000
0fe0
0fe0
0380
0380
0380
0380
0380
0380
0380
0380
0380
0380
0380
0380
0fe0
0fe0
0000
0000
0000
0000
0000
0000
ENDCHAR
STARTCHAR J
ENCODING 169
SWIDTH 563 0
DWIDTH 14 0
BBX 14 24 0 -6
BITMAP
0000
0000
03f8
03f8
00e0
00e0
00e0
00e0
00e0
00e0
00e0
00e0
38e0
38e0
38e0
3de0
1fc0
0f80
0000
0000
0000
0000
0000
0000
ENDCHAR
STARTCHAR K
ENCODING 170
SWIDTH 563 0
DWIDTH 14 0
BBX 14 24 0 -6
BITMAP
0000
0000
3838
3878
38f0
39e0
3bc0
3f80
3f00
3e00
3e00
3f00
3f80
3bc0
39e0
38f0
3878
3838
0000
0000
0000
0000
0000
0000
ENDCHAR
STARTCHAR L
ENCODING 171
SWIDTH 563 0
DWIDTH 14 0
BBX 14 24 0 -6
BITMAP
0000
0000
3800
3800
3800
3800
3800
3800
3800
3800
3800
3800
3800
3800
3800
3800
3ff8
3ff8
0000
0000
0000
0000
0000
0000
ENDCHAR
STARTCHAR M
ENCODING 172
SWIDTH 563 0
DWIDTH 14 0
BBX 14 24 0 -6
BITMAP
0000
0000
3838
3c78
3ef8
3ff8
3ff8
3bb8
3bb8
3bb8
3838
3838
3838
3838
3838
3838
3838
3838
0000
0000
0000
0000
0000
0000
ENDCHAR
STARTCHAR N
ENCODING 173
SWIDTH 563 0
DWIDTH 14 0
BBX 14 24 0 -6
BITMAP
0000
0000
3838
3c38
3e38
3f38
3fb8
3bb8
3bb8
3bf8
39f8
38f8
3878
3838
3838
3838
3838
3838
0000
0000
0000
0000
0000
0000
ENDCHAR
STARTCHAR O
ENCODING 174
SWIDTH 563 0
DWIDTH 14 0
BBX 14 24 0 -6
BITMAP
0000
0000
0fe0
1ff0
3c78
3838
3838
3838
3838
3838
3838
3838
3838
3838
3838
3c78
1ff0
0fe0
0000
0000
0000
0000
0000
0000
ENDCHAR
STARTCHAR P
ENCODING 175
SWIDTH 563 0
DWIDTH 14 0
BBX 14 24 0 -6
BITMAP
0000
0000
3fe0
3ff0
3878
3838
3838
3878
3ff0
3fe0
3800
3800
3800
3800
3800
3800
3800
3800
0000
0000
0000
0000
0000
0000
ENDCHAR
STARTCHAR Q
ENCODING 176
SWIDTH 563 0
DWIDTH 14 0
BBX 14 24 0 -6
BITMAP
0000
0000
0fe0
1ff0
3c78
3838
3838
3838
3838
3838
3838
3838
3838
3838
3bb8
3ff8
1ff0
0fe0
01e0
00f0
0078
0038
0000
0000
ENDCHAR
STARTCHAR R
ENCODING 177
SWIDTH 563 0
DWIDTH 14 0
BBX 14 24 0 -6
BITMAP
0000
0000
3fe0
3ff0
3878
3838
3838
3878
3ff0
3fe0
3b80
3bc0
39c0
38e0
38e0
3870
3878
3838
0000
0000
0000
0000
0000
0000
ENDCHAR
STARTCHAR S
ENCODING 178
SWIDTH 563 0
DWIDTH 14 0
BBX 14 24 0 -6
BITMAP
0000
0000
0fe0
1ff0
3c78
3838
3800
3c00
1fe0
0ff0
0078
0038
0038
0038
3838
3c78
1ff0
0fe0
0000
0000
0000
0000
0000
0000
ENDCHAR
STARTCHAR T
ENCODING 179
SWIDTH 563 0
DWIDTH 14 0
BBX 14 24 0 -6
BITMAP
0000
0000
3ff8
3ff8
0380
0380
0380
0380
0380
0380
0380
0380
0380
0380
0380
0380
0380
0380
0000
0000
0000
0000
0000
0000
ENDCHAR
STARTCHAR U
ENCODING 180
SWIDTH 563 0
DWIDTH 14 0
BBX 14 24 0 -6
BITMAP
0000
0000
3838
3838
3838
3838
3838
3838
3838
3838
3838
3838
3838
3838
3838
3c78
1ff0
0fe0
0000
0000
0000
0000
0000
0000
ENDCHAR
STARTCHAR V
ENCODING 181
SWIDTH 563 0
DWIDTH 14 0
BBX 14 24 0 -6
BITMAP
0000
0000
3838
3838
3838
1c70
1c70
1c70
0ee0
0ee0
0ee0
07c0
07c0
07c0
0380
0380
0380
0380
0000
0000
0000
0000
0000
0000
ENDCHAR
STARTCHAR W
ENCODING 182
SWIDTH 563 0
DWIDTH 14 0
BBX 14 24 0 -6
BITMAP
0000
0000
3838
3838
3838
3838
3838
3838
3838
3838
3bb8
3bb8
3bb8
3bb8
3bb8
3ff8
1ff0
0ee0
0000
0000
0000
0000
0000
0000
ENDCHAR
STARTCHAR X
ENCODING 183
SWIDTH 563 0
DWIDTH 14 0
BBX 14 24 0 -6
BITMAP
0000
0000
3838
3838
3838
3c78
1ef0
0fe0
07c0
0380
0380
07c0
0fe0
1ef0
3c78
3838
3838
3838
0000
0000
0000
0000
0000
0000
ENDCHAR
STARTCHAR Y
ENCODING 184
SWIDTH 563 0
DWIDTH 14 0
BBX 14 24 0 -6
BITMAP
0000
0000
3838
3838
3838
3c78
1ef0
0fe0
07c0
0380
0380
0380
0380
0380
0380
0380
0380
0380
0000
0000
0000
0000
0000
0000
ENDCHAR
STARTCHAR Z
ENCODING 185
SWIDTH 563 0
DWIDTH 14 0
BBX 14 24 0 -6
BITMAP
0000
0000
3ff8
3ff8
0038
0078
00f0
01e0
03c0
0380
0380
0780
0f00
1e00
3c00
3800
3ff8
3ff8
0000
0000
0000
0000
0000
0000
ENDCHAR
STARTCHAR AE
ENCODING 186
SWIDTH 563 0
DWIDTH 14 0
BBX 14 24 0 -6
BITMAP
0000
0000
0ff8
1ff8
3dc0
39c0
39c0
39c0
3ff8
3ff8
39c0
39c0
39c0
39c0
39c0
39c0
39f8
39f8
0000
0000
0000
0000
0000
0000
ENDCHAR
STARTCHAR Ooblique
ENCODING 187
SWIDTH 563 0
DWIDTH 14 0
BBX 14 24 0 -6
BITMAP
0000
0000
0fe0
1ff0
3cf8
38f8
38f8
39f8
3bf8
3bb8
3bb8
3fb8
3f38
3e38
3e38
3e78
1ff0
0fe0
0000
0000
0000
0000
0000
0000
ENDCHAR
STARTCHAR Aring
ENCODING 188
SWIDTH 563 0
DWIDTH 14 0
BBX 14 24 0 -6
BITMAP
0fe0
0fe0
0fe0
0fe0
0380
07c0
0fe0
1ef0
3c78
3838
3838
3838
3ff8
3ff8
3838
3838
3838
3838
0000
0000
0000
0000
0000
0000
ENDCHAR
STARTCHAR Ccedilla
ENCODING 189
SWIDTH 563 0
DWIDTH 14 0
BBX 14 24 0 -6
BITMAP
0000
0000
03e0
07f0
0f78
1e38
3c00
3800
3800
3800
3800
3800
3800
3c00
1e38
0f78
07f0
03e0
00e0
00e0
0fe0
0fc0
0000
0000
ENDCHAR
STARTCHAR semicolon
ENCODING 190
SWIDTH 563 0
DWIDTH 14 0
BBX 14 24 0 -6
BITMAP
0000
0000
0000
0000
0000
0000
0000
0000
0380
0380
0380
0380
0000
0000
0000
0000
0380
0380
0380
0780
0f00
0e00
0000
0000
ENDCHAR
STARTCHAR asterisk
ENCODING 191
SWIDTH 563 0
DWIDTH 14 0
BBX 14 24 0 -6
BITMAP
0000
0000
0000
0000
0380
0380
3bb8
3ff8
1ff0
0ee0
0ee0
1ff0
3ff8
3bb8
0380
0380
0000
0000
0000
0000
0000
0000
0000
0000
ENDCHAR
STARTCHAR c0
ENCODING 192
SWIDTH 563 0
DWIDTH 14 0
BBX 14 24 0 -6
BITMAP
0000
0000
0000
0000
0000
0000
0000
0000
0000
0000
0000
0000
0000
0000
0000
0000
0000
0000
0000
0000
0000
0000
0000
0000
ENDCHAR
STARTCHAR c1
ENCODING 193
SWIDTH 563 0
DWIDTH 14 0
BBX 14 24 0 -6
BITMAP
0000
0000
0000
0000
0000
0000
0000
0000
0000
0000
0000
0000
0000
0000
0000
0000
0000
0000
0000
0000
0000
0000
0000
0000
ENDCHAR
STARTCHAR c2
ENCODING 194
SWIDTH 563 0
DWIDTH 14 0
BBX 14 24 0 -6
BITMAP
0000
0000
0000
0000
0000
0000
0000
0000
0000
0000
0000
0000
0000
0000
0000
0000
0000
0000
0000
0000
0000
0000
0000
0000
ENDCHAR
STARTCHAR c3
ENCODING 195
SWIDTH 563 0
DWIDTH 14 0
BBX 14 24 0 -6
BITMAP
0000
0000
0000
0000
0000
0000
0000
0000
0000
0000
0000
0000
0000
0000
0000
0000
0000
0000
0000
0000
0000
0000
0000
0000
ENDCHAR
STARTCHAR c4
ENCODING 196
SWIDTH 563 0
DWIDTH 14 0
BBX 14 24 0 -6
BITMAP
0000
0000
0000
0000
0000
0000
0000
0000
0000
0000
0000
0000
0000
0000
0000
0000
0000
0000
0000
0000
0000
0000
0000
0000
ENDCHAR
STARTCHAR c5
ENCODING 197
SWIDTH 563 0
DWIDTH 14 0
BBX 14 24 0 -6
BITMAP
0000
0000
0000
0000
0000
0000
0000
0000
0000
0000
0000
0000
0000
0000
0000
0000
0000
0000
0000
0000
0000
0000
0000
0000
ENDCHAR
STARTCHAR c6
ENCODING 198
SWIDTH 563 0
DWIDTH 14 0
BBX 14 24 0 -6
BITMAP
0000
0000
0000
0000
0000
0000
0000
0000
0000
0000
0000
0000
0000
0000
0000
0000
0000
0000
0000
0000
0000
0000
0000
0000
ENDCHAR
STARTCHAR c7
ENCODING 199
SWIDTH 563 0
DWIDTH 14 0
BBX 14 24 0 -6
BITMAP
0000
0000
0000
0000
0000
0000
0000
0000
0000
0000
0000
0000
0000
0000
0000
0000
0000
0000
0000
0000
0000
0000
0000
0000
ENDCHAR
STARTCHAR c8
ENCODING 200
SWIDTH 563 0
DWIDTH 14 0
BBX 14 24 0 -6
BITMAP
0000
0000
0000
0000
0000
0000
0000
0000
0000
0000
0000
0000
0000
0000
0000
0000
0000
0000
0000
0000
0000
0000
0000
0000
ENDCHAR
STARTCHAR c9
ENCODING 201
SWIDTH 563 0
DWIDTH 14 0
BBX 14 24 0 -6
BITMAP
0000
0000
0000
0000
0000
0000
0000
0000
0000
0000
0000
0000
0000
0000
0000
0000
0000
0000
0000
0000
0000
0000
0000
0000
ENDCHAR
STARTCHAR ca
ENCODING 202
SWIDTH 563 0
DWIDTH 14 0
BBX 14 24 0 -6
BITMAP
0000
0000
0000
0000
0000
0000
0000
0000
0000
0000
0000
0000
0000
0000
0000
0000
0000
0000
0000
0000
0000
0000
0000
0000
ENDCHAR
STARTCHAR cb
ENCODING 203
SWIDTH 563 0
DWIDTH 14 0
BBX 14 24 0 -6
BITMAP
0000
0000
0000
0000
0000
0000
0000
0000
0000
0000
0000
0000
0000
0000
0000
0000
0000
0000
0000
0000
0000
0000
0000
0000
ENDCHAR
STARTCHAR cc
ENCODING 204
SWIDTH 563 0
DWIDTH 14 0
BBX 14 24 0 -6
BITMAP
0000
0000
0000
0000
0000
0000
0000
0000
0000
0000
0000
0000
0000
0000
0000
0000
0000
0000
0000
0000
0000
0000
0000
0000
ENDCHAR
STARTCHAR cd
ENCODING 205
SWIDTH 563 0
DWIDTH 14 0
BBX 14 24 0 -6
BITMAP
0000
0000
0000
0000
0000
0000
0000
0000
0000
0000
0000
0000
0000
0000
0000
0000
0000
0000
0000
0000
0000
0000
0000
0000
ENDCHAR
STARTCHAR ce
ENCODING 206
SWIDTH 563 0
DWIDTH 14 0
BBX 14 24 0 -6
BITMAP
0000
0000
0000
0000
0000
0000
0000
0000
0000
0000
0000
0000
0000
0000
0000
0000
0000
0000
0000
0000
0000
0000
0000
0000
ENDCHAR
STARTCHAR cf
ENCODING 207
SWIDTH 563 0
DWIDTH 14 0
BBX 14 24 0 -6
BITMAP
0000
0000
0000
0000
0000
0000
0000
0000
0000
0000
0000
0000
0000
0000
0000
0000
0000
0000
0000
0000
0000
0000
0000
0000
ENDCHAR
STARTCHAR copyright
ENCODING 208
SWIDTH 563 0
DWIDTH 14 0
BBX 14 24 0 -6
BITMAP
0000
0000
0fc0
1fe0
3870
7038
6018
6318
6498
6418
6418
6498
6318
6018
7038
3870
1fe0
0fc0
0000
0000
0000
0000
0000
0000
ENDCHAR
STARTCHAR registered
ENCODING 209
SWIDTH 563 0
DWIDTH 14 0
BBX 14 24 0 -6
BITMAP
0000
0000
0fc0
1fe0
3870
7038
6018
6718
6498
6498
6718
6498
6498
6018
7038
3870
1fe0
0fc0
0000
0000
0000
0000
0000
0000
ENDCHAR
STARTCHAR boxA
ENCODING 210
SWIDTH 563 0
DWIDTH 14 0
BBX 14 24 0 -6
BITMAP
0000
0000
3c00
7e00
e700
c300
c300
c300
ff00
ff00
c300
c300
0000
0000
fffc
fffc
c00c
c00c
fffc
fffc
0000
0000
0000
0000
ENDCHAR
STARTCHAR insert
ENCODING 211
SWIDTH 563 0
DWIDTH 14 0
BBX 14 24 0 -6
BITMAP
0000
0000
0000
0000
0000
0000
0300
0780
0fc0
1fe0
3ff0
7ff8
fffc
fcfc
f87c
f03c
e01c
c00c
8004
0000
0000
0000
0000
0000
ENDCHAR
STARTCHAR boxB
ENCODING 212
SWIDTH 563 0
DWIDTH 14 0
BBX 14 24 0 -6
BITMAP
0000
0000
03f0
03f8
031c
031c
03f8
03f8
031c
031c
03f8
03f0
0000
0000
fffc
fffc
c00c
c00c
fffc
fffc
0000
0000
0000
0000
ENDCHAR
STARTCHAR box6
ENCODING 213
SWIDTH 563 0
DWIDTH 14 0
BBX 14 24 0 -6
BITMAP
0000
0000
0000
0000
fffc
fffc
c00c
c30c
c70c
ce0c
cc0c
cc0c
cf8c
cfcc
cccc
cccc
cfcc
c78c
c00c
c00c
fffc
fffc
0000
0000
ENDCHAR
STARTCHAR plusminus
ENCODING 214
SWIDTH 563 0
DWIDTH 14 0
BBX 14 24 0 -6
BITMAP
0000
0000
0380
0380
0380
0380
3ff8
3ff8
0380
0380
0380
0380
0000
0000
3ff8
3ff8
0000
0000
0000
0000
0000
0000
0000
0000
ENDCHAR
STARTCHAR ETH
ENCODING 215
SWIDTH 563 0
DWIDTH 14 0
BBX 14 24 0 -6
BITMAP
0000
0000
3fe0
3ff0
0e78
0e38
0e38
0e38
0e38
3fb8
3fb8
0e38
0e38
0e38
0e38
0e78
3ff0
3fe0
0000
0000
0000
0000
0000
0000
ENDCHAR
STARTCHAR rightarrow
ENCODING 216
SWIDTH 563 0
DWIDTH 14 0
BBX 14 24 0 -6
BITMAP
0000
0000
0000
0000
0000
0000
0000
0180
01c0
01e0
fff0
fff0
01e0
01c0
0180
0000
0000
0000
0000
0000
0000
0000
0000
0000
ENDCHAR
STARTCHAR THORN
ENCODING 217
SWIDTH 563 0
DWIDTH 14 0
BBX 14 24 0 -6
BITMAP
0000
0000
3800
3800
3800
3fe0
3ff0
3878
3838
3838
3878
3ff0
3fe0
3800
3800
3800
3800
3800
0000
0000
0000
0000
0000
0000
ENDCHAR
STARTCHAR upshift
ENCODING 218
SWIDTH 563 0
DWIDTH 14 0
BBX 14 24 0 -6
BITMAP
0000
0000
0300
0780
0fc0
1ce0
3870
3030
3cf0
3cf0
0cc0
0cc0
0cc0
0cc0
0cc0
0cc0
0cc0
0cc0
0fc0
0fc0
0000
0000
0000
0000
ENDCHAR
STARTCHAR human
ENCODING 219
SWIDTH 563 0
DWIDTH 14 0
BBX 14 24 0 -6
BITMAP
0780
0fc0
0cc0
0cc0
0fc0
0780
0300
0300
3ff0
3ff0
0300
0300
0300
0780
0fc0
1ce0
3870
3030
0000
0000
0000
0000
0000
0000
ENDCHAR
STARTCHAR underB
ENCODING 220
SWIDTH 563 0
DWIDTH 14 0
BBX 14 24 0 -6
BITMAP
0000
0000
0f00
0f80
0cc0
0cc0
0f80
0f80
0cc0
0cc0
0f80
0f00
0000
0000
fffc
fffc
0000
0000
0000
0000
0000
0000
0000
0000
ENDCHAR
STARTCHAR downshift
ENCODING 221
SWIDTH 563 0
DWIDTH 14 0
BBX 14 24 0 -6
BITMAP
0000
0000
0fc0
0fc0
0cc0
0cc0
0cc0
0cc0
0cc0
0cc0
0cc0
0cc0
3cf0
3cf0
3030
3870
1ce0
0fc0
0780
0300
0000
0000
0000
0000
ENDCHAR
STARTCHAR boxquestion
ENCODING 222
SWIDTH 563 0
DWIDTH 14 0
BBX 14 24 0 -6
BITMAP
0000
0000
fffc
fffc
c00c
c00c
c30c
c78c
cfcc
cccc
c0cc
c1cc
c38c
c30c
c30c
c00c
c30c
c30c
c00c
c00c
fffc
fffc
0000
0000
ENDCHAR
STARTCHAR boxsolid
ENCODING 223
SWIDTH 563 0
DWIDTH 14 0
BBX 14 24 0 -6
BITMAP
0000
0000
fffc
fffc
fffc
fffc
fffc
fffc
fffc
fffc
fffc
fffc
fffc
fffc
fffc
fffc
fffc
fffc
fffc
fffc
fffc
fffc
0000
0000
ENDCHAR
STARTCHAR e0
ENCODING 224
SWIDTH 563 0
DWIDTH 14 0
BBX 14 24 0 -6
BITMAP
0000
0000
0000
0000
0000
0000
0000
0000
0000
0000
0000
0000
0000
0000
0000
0000
0000
0000
0000
0000
0000
0000
0000
0000
ENDCHAR
STARTCHAR e1
ENCODING 225
SWIDTH 563 0
DWIDTH 14 0
BBX 14 24 0 -6
BITMAP
0000
0000
0000
0000
0000
0000
0000
0000
0000
0000
0000
0000
0000
0000
0000
0000
0000
0000
0000
0000
0000
0000
0000
0000
ENDCHAR
STARTCHAR e2
ENCODING 226
SWIDTH 563 0
DWIDTH 14 0
BBX 14 24 0 -6
BITMAP
0000
0000
0000
0000
0000
0000
0000
0000
0000
0000
0000
0000
0000
0000
0000
0000
0000
0000
0000
0000
0000
0000
0000
0000
ENDCHAR
STARTCHAR e3
ENCODING 227
SWIDTH 563 0
DWIDTH 14 0
BBX 14 24 0 -6
BITMAP
0000
0000
0000
0000
0000
0000
0000
0000
0000
0000
0000
0000
0000
0000
0000
0000
0000
0000
0000
0000
0000
0000
0000
0000
ENDCHAR
STARTCHAR e4
ENCODING 228
SWIDTH 563 0
DWIDTH 14 0
BBX 14 24 0 -6
BITMAP
0000
0000
0000
0000
0000
0000
0000
0000
0000
0000
0000
0000
0000
0000
0000
0000
0000
0000
0000
0000
0000
0000
0000
0000
ENDCHAR
STARTCHAR e5
ENCODING 229
SWIDTH 563 0
DWIDTH 14 0
BBX 14 24 0 -6
BITMAP
0000
0000
0000
0000
0000
0000
0000
0000
0000
0000
0000
0000
0000
0000
0000
0000
0000
0000
0000
0000
0000
0000
0000
0000
ENDCHAR
STARTCHAR e6
ENCODING 230
SWIDTH 563 0
DWIDTH 14 0
BBX 14 24 0 -6
BITMAP
0000
0000
0000
0000
0000
0000
0000
0000
0000
0000
0000
0000
0000
0000
0000
0000
0000
0000
0000
0000
0000
0000
0000
0000
ENDCHAR
STARTCHAR e7
ENCODING 231
SWIDTH 563 0
DWIDTH 14 0
BBX 14 24 0 -6
BITMAP
0000
0000
0000
0000
0000
0000
0000
0000
0000
0000
0000
0000
0000
0000
0000
0000
0000
0000
0000
0000
0000
0000
0000
0000
ENDCHAR
STARTCHAR e8
ENCODING 232
SWIDTH 563 0
DWIDTH 14 0
BBX 14 24 0 -6
BITMAP
0000
0000
0000
0000
0000
0000
0000
0000
0000
0000
0000
0000
0000
0000
0000
0000
0000
0000
0000
0000
0000
0000
0000
0000
ENDCHAR
STARTCHAR e9
ENCODING 233
SWIDTH 563 0
DWIDTH 14 0
BBX 14 24 0 -6
BITMAP
0000
0000
0000
0000
0000
0000
0000
0000
0000
0000
0000
0000
0000
0000
0000
0000
0000
0000
0000
0000
0000
0000
0000
0000
ENDCHAR
STARTCHAR ea
ENCODING 234
SWIDTH 563 0
DWIDTH 14 0
BBX 14 24 0 -6
BITMAP
0000
0000
0000
0000
0000
0000
0000
0000
0000
0000
0000
0000
0000
0000
0000
0000
0000
0000
0000
0000
0000
0000
0000
0000
ENDCHAR
STARTCHAR eb
ENCODING 235
SWIDTH 563 0
DWIDTH 14 0
BBX 14 24 0 -6
BITMAP
0000
0000
0000
0000
0000
0000
0000
0000
0000
0000
0000
0000
0000
0000
0000
0000
0000
0000
0000
0000
0000
0000
0000
0000
ENDCHAR
STARTCHAR ec
ENCODING 236
SWIDTH 563 0
DWIDTH 14 0
BBX 14 24 0 -6
BITMAP
0000
0000
0000
0000
0000
0000
0000
0000
0000
0000
0000
0000
0000
0000
0000
0000
0000
0000
0000
0000
0000
0000
0000
0000
ENDCHAR
STARTCHAR ed
ENCODING 237
SWIDTH 563 0
DWIDTH 14 0
BBX 14 24 0 -6
BITMAP
0000
0000
0000
0000
0000
0000
0000
0000
0000
0000
0000
0000
0000
0000
0000
0000
0000
0000
0000
0000
0000
0000
0000
0000
ENDCHAR
STARTCHAR ee
ENCODING 238
SWIDTH 563 0
DWIDTH 14 0
BBX 14 24 0 -6
BITMAP
0000
0000
0000
0000
0000
0000
0000
0000
0000
0000
0000
0000
0000
0000
0000
0000
0000
0000
0000
0000
0000
0000
0000
0000
ENDCHAR
STARTCHAR ef
ENCODING 239
SWIDTH 563 0
DWIDTH 14 0
BBX 14 24 0 -6
BITMAP
0000
0000
0000
0000
0000
0000
0000
0000
0000
0000
0000
0000
0000
0000
0000
0000
0000
0000
0000
0000
0000
0000
0000
0000
ENDCHAR
STARTCHAR badcommhi
ENCODING 240
SWIDTH 563 0
DWIDTH 14 0
BBX 14 24 0 -6
BITMAP
0000
0000
0000
8000
c000
e000
f000
f800
7c00
3e00
fffc
fffc
07c0
03e0
01f0
00f8
007c
003c
001c
000c
0004
0000
0000
0000
ENDCHAR
STARTCHAR commhi
ENCODING 241
SWIDTH 563 0
DWIDTH 14 0
BBX 14 24 0 -6
BITMAP
0000
0000
0000
0000
0000
0000
0000
0000
0000
0000
fffc
fffc
0000
0000
0000
0000
0000
0000
0000
0000
0000
0000
0000
0000
ENDCHAR
STARTCHAR commjag
ENCODING 242
SWIDTH 563 0
DWIDTH 14 0
BBX 14 24 0 -6
BITMAP
0000
0000
0000
0000
0000
0000
0000
0000
0000
0000
ffc0
ffc0
0380
0700
0e00
1c00
3ffc
3ffc
0000
0000
0000
0000
0000
0000
ENDCHAR
STARTCHAR commlo
ENCODING 243
SWIDTH 563 0
DWIDTH 14 0
BBX 14 24 0 -6
BITMAP
0000
0000
0000
0000
0000
0000
0000
0000
0000
0000
0000
0000
0000
0000
0000
0000
fffc
fffc
0000
0000
0000
0000
0000
0000
ENDCHAR
STARTCHAR clockleft
ENCODING 244
SWIDTH 563 0
DWIDTH 14 0
BBX 14 24 0 -6
BITMAP
0000
0000
000c
000c
0300
0300
0000
0000
0000
0004
000c
0c0c
0c0c
000c
000c
000c
000c
000c
0300
0300
000c
000c
0000
0000
ENDCHAR
STARTCHAR clockright
ENCODING 245
SWIDTH 563 0
DWIDTH 14 0
BBX 14 24 0 -6
BITMAP
0000
0000
0000
0000
0c00
0c00
3000
7000
e000
c000
8000
00c0
00c0
0000
0000
0000
0000
0000
0c00
0c00
0000
0000
0000
0000
ENDCHAR
STARTCHAR lock
ENCODING 246
SWIDTH 563 0
DWIDTH 14 0
BBX 14 24 0 -6
BITMAP
0000
8004
c00c
e01c
f03c
f87c
fcfc
fffc
7ff8
3ff0
1fe0
1fe0
3ff0
7ff8
fffc
fcfc
f87c
f03c
e01c
c00c
8004
0000
0000
0000
ENDCHAR
STARTCHAR eth
ENCODING 247
SWIDTH 563 0
DWIDTH 14 0
BBX 14 24 0 -6
BITMAP
0000
0000
0ee0
0fe0
07c0
0fe0
0ef0
0078
0ff8
1ff8
3c38
3838
3838
3838
3838
3c78
1ff0
0fe0
0000
0000
0000
0000
0000
0000
ENDCHAR
STARTCHAR leftarrow
ENCODING 248
SWIDTH 563 0
DWIDTH 14 0
BBX 14 24 0 -6
BITMAP
0000
0000
0000
0000
0000
0000
0000
0600
0e00
1e00
3ffc
3ffc
1e00
0e00
0600
0000
0000
0000
0000
0000
0000
0000
0000
0000
ENDCHAR
STARTCHAR thorn
ENCODING 249
SWIDTH 563 0
DWIDTH 14 0
BBX 14 24 0 -6
BITMAP
0000
0000
0000
0000
3800
3800
3800
3800
3fe0
3ff0
3878
3838
3838
3838
3838
3878
3ff0
3fe0
3800
3800
3800
3800
0000
0000
ENDCHAR
STARTCHAR keyleft
ENCODING 250
SWIDTH 563 0
DWIDTH 14 0
BBX 14 24 0 -6
BITMAP
0000
0000
0000
0000
0000
0000
03c0
07e0
0e70
0c3c
0c3c
0e70
07e0
03c0
0000
0000
0000
0000
0000
0000
0000
0000
0000
0000
ENDCHAR
STARTCHAR keyright
ENCODING 251
SWIDTH 563 0
DWIDTH 14 0
BBX 14 24 0 -6
BITMAP
0000
0000
0000
0000
0000
0000
0000
0000
0000
fffc
fffc
0f3c
0f3c
0f3c
003c
003c
0000
0000
0000
0000
0000
0000
0000
0000
ENDCHAR
STARTCHAR box4
ENCODING 252
SWIDTH 563 0
DWIDTH 14 0
BBX 14 24 0 -6
BITMAP
0000
0000
0000
0000
fffc
fffc
c00c
c00c
c0cc
c1cc
c3cc
c7cc
cecc
cccc
cfcc
cfcc
c0cc
c0cc
c00c
c00c
fffc
fffc
0000
0000
ENDCHAR
STARTCHAR underA
ENCODING 253
SWIDTH 563 0
DWIDTH 14 0
BBX 14 24 0 -6
BITMAP
0000
0000
0300
0780
0fc0
0cc0
0cc0
0cc0
0fc0
0fc0
0cc0
0cc0
0000
0000
fffc
fffc
0000
0000
0000
0000
0000
0000
0000
0000
ENDCHAR
STARTCHAR magcard
ENCODING 254
SWIDTH 563 0
DWIDTH 14 0
BBX 14 24 0 -6
BITMAP
0000
0000
0000
0000
0000
0000
fffc
fffc
c00c
c00c
c00c
c00c
fffc
fffc
c00c
c00c
fffc
fffc
0000
0000
0000
0000
0000
0000
ENDCHAR
STARTCHAR boxhuman
ENCODING 255
SWIDTH 563 0
DWIDTH 14 0
BBX 14 24 0 -6
BITMAP
0000
0000
fffc
fffc
c78c
cfcc
cccc
cccc
cfcc
c78c
fffc
fffc
c30c
c30c
c30c
c78c
cfcc
dcec
f87c
f03c
fffc
fffc
0000
0000
ENDCHAR
STARTCHAR apl_space
ENCODING 272
SWIDTH 563 0
DWIDTH 14 0
BBX 14 24 0 -6
BITMAP
0000
0000
0000
0000
0000
0000
0000
0000
0000
0000
0000
0000
0000
0000
0000
0000
0000
0000
0000
0000
0000
0000
0000
0000
ENDCHAR
STARTCHAR apl_bracketright
ENCODING 316
SWIDTH 563 0
DWIDTH 14 0
BBX 14 24 0 -6
BITMAP
0000
0000
0fe0
0fe0
00e0
00e0
00e0
00e0
00e0
00e0
00e0
00e0
00e0
00e0
00e0
00e0
00e0
00e0
0fe0
0fe0
0000
0000
0000
0000
ENDCHAR
STARTCHAR apl_bracketleft
ENCODING 328
SWIDTH 563 0
DWIDTH 14 0
BBX 14 24 0 -6
BITMAP
0000
0000
0fe0
0fe0
0e00
0e00
0e00
0e00
0e00
0e00
0e00
0e00
0e00
0e00
0e00
0e00
0e00
0e00
0fe0
0fe0
0000
0000
0000
0000
ENDCHAR
STARTCHAR apl_stile
ENCODING 347
SWIDTH 563 0
DWIDTH 14 0
BBX 14 24 0 -6
BITMAP
0380
0380
0380
0380
0380
0380
0380
0380
0380
0380
0380
0380
0380
0380
0380
0380
0380
0380
0380
0380
0380
0380
0380
0380
ENDCHAR
STARTCHAR apl_2vertical
ENCODING 384
SWIDTH 563 0
DWIDTH 14 0
BBX 14 24 0 -6
BITMAP
3838
3838
3838
3838
3838
3838
3838
3838
3838
3838
3838
3838
3838
3838
3838
3838
3838
3838
3838
3838
3838
3838
3838
3838
ENDCHAR
STARTCHAR apl_2horizontal
ENCODING 385
SWIDTH 563 0
DWIDTH 14 0
BBX 14 24 0 -6
BITMAP
0000
0000
fffc
fffc
0000
0000
0000
0000
0000
0000
0000
0000
0000
0000
0000
0000
0000
0000
0000
0000
fffc
fffc
0000
0000
ENDCHAR
STARTCHAR apl_leftvbar
ENCODING 386
SWIDTH 563 0
DWIDTH 14 0
BBX 14 24 0 -6
BITMAP
3800
3800
3800
3800
3800
3800
3800
3800
3800
3800
3800
3800
3800
3800
3800
3800
3800
3800
3800
3800
3800
3800
3800
3800
ENDCHAR
STARTCHAR apl_rightvbar
ENCODING 387
SWIDTH 563 0
DWIDTH 14 0
BBX 14 24 0 -6
BITMAP
0038
0038
0038
0038
0038
0038
0038
0038
0038
0038
0038
0038
0038
0038
0038
0038
0038
0038
0038
0038
0038
0038
0038
0038
ENDCHAR
STARTCHAR apl_midvbar
ENCODING 388
SWIDTH 563 0
DWIDTH 14 0
BBX 14 24 0 -6
BITMAP
0380
0380
0380
0380
0380
0380
0380
0380
0380
0380
0380
0380
0380
0380
0380
0380
0380
0380
0380
0380
0380
0380
0380
0380
ENDCHAR
STARTCHAR apl_leftsolid
ENCODING 393
SWIDTH 563 0
DWIDTH 14 0
BBX 14 24 0 -6
BITMAP
ff00
ff00
ff00
ff00
ff00
ff00
ff00
ff00
ff00
ff00
ff00
ff00
ff00
ff00
ff00
ff00
ff00
ff00
ff00
ff00
ff00
ff00
ff00
ff00
ENDCHAR
STARTCHAR apl_rightsolid
ENCODING 394
SWIDTH 563 0
DWIDTH 14 0
BBX 14 24 0 -6
BITMAP
01fc
01fc
01fc
01fc
01fc
01fc
01fc
01fc
01fc
01fc
01fc
01fc
01fc
01fc
01fc
01fc
01fc
01fc
01fc
01fc
01fc
01fc
01fc
01fc
ENDCHAR
STARTCHAR apl_topsolid
ENCODING 395
SWIDTH 563 0
DWIDTH 14 0
BBX 14 24 0 -6
BITMAP
fffc
fffc
fffc
fffc
fffc
fffc
fffc
fffc
fffc
fffc
fffc
fffc
0000
0000
0000
0000
0000
0000
0000
0000
0000
0000
0000
0000
ENDCHAR
STARTCHAR apl_bottomsolid
ENCODING 396
SWIDTH 563 0
DWIDTH 14 0
BBX 14 24 0 -6
BITMAP
0000
0000
0000
0000
0000
0000
0000
0000
0000
0000
0000
0000
fffc
fffc
fffc
fffc
fffc
fffc
fffc
fffc
fffc
fffc
fffc
fffc
ENDCHAR
STARTCHAR apl_solid
ENCODING 397
SWIDTH 563 0
DWIDTH 14 0
BBX 14 24 0 -6
BITMAP
fffc
fffc
fffc
fffc
fffc
fffc
fffc
fffc
fffc
fffc
fffc
fffc
fffc
fffc
fffc
fffc
fffc
fffc
fffc
fffc
fffc
fffc
fffc
fffc
ENDCHAR
STARTCHAR apl_midhbar
ENCODING 402
SWIDTH 563 0
DWIDTH 14 0
BBX 14 24 0 -6
BITMAP
0000
0000
0000
0000
0000
0000
0000
0000
0000
0000
fffc
fffc
0000
0000
0000
0000
0000
0000
0000
0000
0000
0000
0000
0000
ENDCHAR
STARTCHAR apl_lowerleft
ENCODING 419
SWIDTH 563 0
DWIDTH 14 0
BBX 14 24 0 -6
BITMAP
0380
0380
0380
0380
0380
0380
0380
0380
0380
03c0
03fc
01fc
0000
0000
0000
0000
0000
0000
0000
0000
0000
0000
0000
0000
ENDCHAR
STARTCHAR apl_upperleft
ENCODING 420
SWIDTH 563 0
DWIDTH 14 0
BBX 14 24 0 -6
BITMAP
0000
0000
0000
0000
0000
0000
0000
0000
0000
0000
01fc
03fc
03c0
0380
0380
0380
0380
0380
0380
0380
0380
0380
0380
0380
ENDCHAR
STARTCHAR apl_leftjoin
ENCODING 421
SWIDTH 563 0
DWIDTH 14 0
BBX 14 24 0 -6
BITMAP
0380
0380
0380
0380
0380
0380
0380
0380
0380
0380
03fc
03fc
0380
0380
0380
0380
0380
0380
0380
0380
0380
0380
0380
0380
ENDCHAR
STARTCHAR apl_bottomjoin
ENCODING 422
SWIDTH 563 0
DWIDTH 14 0
BBX 14 24 0 -6
BITMAP
0380
0380
0380
0380
0380
0380
0380
0380
0380
0380
fffc
fffc
0000
0000
0000
0000
0000
0000
0000
0000
0000
0000
0000
0000
ENDCHAR
STARTCHAR apl_intersect
ENCODING 427
SWIDTH 563 0
DWIDTH 14 0
BBX 14 24 0 -6
BITMAP
0380
0380
0380
0380
0380
0380
0380
0380
0380
0380
fffc
fffc
0380
0380
0380
0380
0380
0380
0380
0380
0380
0380
0380
0380
ENDCHAR
STARTCHAR apl_lowerright
ENCODING 428
SWIDTH 563 0
DWIDTH 14 0
BBX 14 24 0 -6
BITMAP
0380
0380
0380
0380
0380
0380
0380
0380
0380
0780
ff80
ff00
0000
0000
0000
0000
0000
0000
0000
0000
0000
0000
0000
0000
ENDCHAR
STARTCHAR apl_upperright
ENCODING 429
SWIDTH 563 0
DWIDTH 14 0
BBX 14 24 0 -6
BITMAP
0000
0000
0000
0000
0000
0000
0000
0000
0000
0000
ff00
ff80
0780
0380
0380
0380
0380
0380
0380
0380
0380
0380
0380
0380
ENDCHAR
STARTCHAR apl_rightjoin
ENCODING 430
SWIDTH 563 0
DWIDTH 14 0
BBX 14 24 0 -6
BITMAP
0380
0380
0380
0380
0380
0380
0380
0380
0380
0380
ff80
ff80
0380
0380
0380
0380
0380
0380
0380
0380
0380
0380
0380
0380
ENDCHAR
STARTCHAR apl_topjoin
ENCODING 431
SWIDTH 563 0
DWIDTH 14 0
BBX 14 24 0 -6
BITMAP
0000
0000
0000
0000
0000
0000
0000
0000
0000
0000
fffc
fffc
0380
0380
0380
0380
0380
0380
0380
0380
0380
0380
0380
0380
ENDCHAR
STARTCHAR dec_solid
ENCODING 512
SWIDTH 563 0
DWIDTH 14 0
BBX 14 24 0 -6
BITMAP
0fe0
0fe0
0fe0
0fe0
0fe0
0fe0
0fe0
0fe0
0fe0
0fe0
0fe0
0fe0
0fe0
0fe0
0fe0
0fe0
0fe0
0fe0
0fe0
0fe0
0fe0
0fe0
0fe0
0fe0
ENDCHAR
STARTCHAR dec_filled_circle
ENCODING 513
SWIDTH 563 0
DWIDTH 14 0
BBX 14 24 0 -6
BITMAP
0000
0000
0000
0000
0000
0000
0000
03c0
07e0
0ff0
0ff0
0ff0
07e0
03c0
0000
0000
0000
0000
0000
0000
0000
0000
0000
0000
ENDCHAR
STARTCHAR dec_halftone_block
ENCODING 514
SWIDTH 563 0
DWIDTH 14 0
BBX 14 24 0 -6
BITMAP
aaa8
5554
aaa8
5554
aaa8
5554
aaa8
5554
aaa8
5554
aaa8
5554
aaa8
5554
aaa8
5554
aaa8
5554
aaa8
5554
aaa8
5554
aaa8
5554
ENDCHAR
STARTCHAR dec_ht
ENCODING 515
SWIDTH 563 0
DWIDTH 14 0
BBX 14 24 0 -6
BITMAP
0000
7700
7700
7700
7700
7f00
7f00
7700
7700
7700
7700
0000
0000
03f8
03f8
00e0
00e0
00e0
00e0
00e0
00e0
00e0
00e0
0000
ENDCHAR
STARTCHAR dec_ff
ENCODING 516
SWIDTH 563 0
DWIDTH 14 0
BBX 14 24 0 -6
BITMAP
0000
7f00
7f00
7000
7000
7e00
7e00
7000
7000
7000
7000
0000
0000
03f8
03f8
0380
0380
03f0
03f0
0380
0380
0380
0380
0000
ENDCHAR
STARTCHAR dec_cr
ENCODING 517
SWIDTH 563 0
DWIDTH 14 0
BBX 14 24 0 -6
BITMAP
0000
3e00
7f00
7f00
7000
7000
7000
7000
7f00
7f00
3e00
0000
0000
03f0
03f8
03b8
03b8
03f0
03e0
03f0
03f8
03b8
03b8
0000
ENDCHAR
STARTCHAR dec_lf
ENCODING 518
SWIDTH 563 0
DWIDTH 14 0
BBX 14 24 0 -6
BITMAP
0000
7000
7000
7000
7000
7000
7000
7000
7000
7f00
7f00
0000
0000
03f8
03f8
0380
0380
03f0
03f0
0380
0380
0380
0380
0000
ENDCHAR
STARTCHAR dec_degree
ENCODING 519
SWIDTH 563 0
DWIDTH 14 0
BBX 14 24 0 -6
BITMAP
0000
0000
07c0
0fe0
0ee0
0ee0
0fe0
07c0
0000
0000
0000
0000
0000
0000
0000
0000
0000
0000
0000
0000
0000
0000
0000
0000
ENDCHAR
STARTCHAR dec_plusminus
ENCODING 520
SWIDTH 563 0
DWIDTH 14 0
BBX 14 24 0 -6
BITMAP
0000
0000
0380
0380
0380
0380
3ff8
3ff8
0380
0380
0380
0380
0000
0000
3ff8
3ff8
0000
0000
0000
0000
0000
0000
0000
0000
ENDCHAR
STARTCHAR dec_nl
ENCODING 521
SWIDTH 563 0
DWIDTH 14 0
BBX 14 24 0 -6
BITMAP
0000
7380
7b80
7b80
7f80
7f80
7f80
7780
7780
7380
7380
0000
0000
0380
0380
0380
0380
0380
0380
0380
0380
03f8
03f8
0000
ENDCHAR
STARTCHAR dec_vt
ENCODING 522
SWIDTH 563 0
DWIDTH 14 0
BBX 14 24 0 -6
BITMAP
0000
7380
7380
7380
7380
7380
7380
7f80
3f00
1e00
0c00
0000
0000
03f8
03f8
00e0
00e0
00e0
00e0
00e0
00e0
00e0
00e0
0000
ENDCHAR
STARTCHAR dec_lowerright
ENCODING 523
SWIDTH 563 0
DWIDTH 14 0
BBX 14 24 0 -6
BITMAP
0380
0380
0380
0380
0380
0380
0380
0380
0380
0780
ff80
ff00
0000
0000
0000
0000
0000
0000
0000
0000
0000
0000
0000
0000
ENDCHAR
STARTCHAR dec_upperright
ENCODING 524
SWIDTH 563 0
DWIDTH 14 0
BBX 14 24 0 -6
BITMAP
0000
0000
0000
0000
0000
0000
0000
0000
0000
0000
ff00
ff80
0780
0380
0380
0380
0380
0380
0380
0380
0380
0380
0380
0380
ENDCHAR
STARTCHAR dec_upperleft
ENCODING 525
SWIDTH 563 0
DWIDTH 14 0
BBX 14 24 0 -6
BITMAP
0000
0000
0000
0000
0000
0000
0000
0000
0000
0000
01fc
03fc
03c0
0380
0380
0380
0380
0380
0380
0380
0380
0380
0380
0380
ENDCHAR
STARTCHAR dec_lowerleft
ENCODING 526
SWIDTH 563 0
DWIDTH 14 0
BBX 14 24 0 -6
BITMAP
0380
0380
0380
0380
0380
0380
0380
0380
0380
03c0
03fc
01fc
0000
0000
0000
0000
0000
0000
0000
0000
0000
0000
0000
0000
ENDCHAR
STARTCHAR dec_intersect
ENCODING 527
SWIDTH 563 0
DWIDTH 14 0
BBX 14 24 0 -6
BITMAP
0380
0380
0380
0380
0380
0380
0380
0380
0380
0380
fffc
fffc
0380
0380
0380
0380
0380
0380
0380
0380
0380
0380
0380
0380
ENDCHAR
STARTCHAR dec_hbar1
ENCODING 528
SWIDTH 563 0
DWIDTH 14 0
BBX 14 24 0 -6
BITMAP
0000
0000
fffc
fffc
0000
0000
0000
0000
0000
0000
0000
0000
0000
0000
0000
0000
0000
0000
0000
0000
0000
0000
0000
0000
ENDCHAR
STARTCHAR dec_hbar2
ENCODING 529
SWIDTH 563 0
DWIDTH 14 0
BBX 14 24 0 -6
BITMAP
0000
0000
0000
0000
0000
0000
fffc
fffc
0000
0000
0000
0000
0000
0000
0000
0000
0000
0000
0000
0000
0000
0000
0000
0000
ENDCHAR
STARTCHAR dec_hbar3
ENCODING 530
SWIDTH 563 0
DWIDTH 14 0
BBX 14 24 0 -6
BITMAP
0000
0000
0000
0000
0000
0000
0000
0000
0000
0000
fffc
fffc
0000
0000
0000
0000
0000
0000
0000
0000
0000
0000
0000
0000
ENDCHAR
STARTCHAR dec_hbar4
ENCODING 531
SWIDTH 563 0
DWIDTH 14 0
BBX 14 24 0 -6
BITMAP
0000
0000
0000
0000
0000
0000
0000
0000
0000
0000
0000
0000
0000
0000
fffc
fffc
0000
0000
0000
0000
0000
0000
0000
0000
ENDCHAR
STARTCHAR dec_hbar5
ENCODING 532
SWIDTH 563 0
DWIDTH 14 0
BBX 14 24 0 -6
BITMAP
0000
0000
0000
0000
0000
0000
0000
0000
0000
0000
0000
0000
0000
0000
0000
0000
0000
0000
fffc
fffc
0000
0000
0000
0000
ENDCHAR
STARTCHAR dec_leftjoin
ENCODING 533
SWIDTH 563 0
DWIDTH 14 0
BBX 14 24 0 -6
BITMAP
0380
0380
0380
0380
0380
0380
0380
0380
0380
0380
03fc
03fc
0380
0380
0380
0380
0380
0380
0380
0380
0380
0380
0380
0380
ENDCHAR
STARTCHAR dec_rightjoin
ENCODING 534
SWIDTH 563 0
DWIDTH 14 0
BBX 14 24 0 -6
BITMAP
0380
0380
0380
0380
0380
0380
0380
0380
0380
0380
ff80
ff80
0380
0380
0380
0380
0380
0380
0380
0380
0380
0380
0380
0380
ENDCHAR
STARTCHAR dec_bottomjoin
ENCODING 535
SWIDTH 563 0
DWIDTH 14 0
BBX 14 24 0 -6
BITMAP
0380
0380
0380
0380
0380
0380
0380
0380
0380
0380
fffc
fffc
0000
0000
0000
0000
0000
0000
0000
0000
0000
0000
0000
0000
ENDCHAR
STARTCHAR dec_topjoin
ENCODING 536
SWIDTH 563 0
DWIDTH 14 0
BBX 14 24 0 -6
BITMAP
0000
0000
0000
0000
0000
0000
0000
0000
0000
0000
fffc
fffc
0380
0380
0380
0380
0380
0380
0380
0380
0380
0380
0380
0380
ENDCHAR
STARTCHAR dec_vbar
ENCODING 537
SWIDTH 563 0
DWIDTH 14 0
BBX 14 24 0 -6
BITMAP
0380
0380
0380
0380
0380
0380
0380
0380
0380
0380
0380
0380
0380
0380
0380
0380
0380
0380
0380
0380
0380
0380
0380
0380
ENDCHAR
STARTCHAR dec_notgreater
ENCODING 538
SWIDTH 563 0
DWIDTH 14 0
BBX 14 24 0 -6
BITMAP
0000
0000
0000
0000
00e0
01e0
03c0
0780
0f00
1e00
3c00
3c00
1e00
0f00
0780
03c0
01e0
00e0
0000
0000
7ff0
7ff0
0000
0000
ENDCHAR
STARTCHAR dec_notless
ENCODING 539
SWIDTH 563 0
DWIDTH 14 0
BBX 14 24 0 -6
BITMAP
0000
0000
0000
0000
0e00
0f00
0780
03c0
01e0
00f0
0078
0078
00f0
01e0
03c0
0780
0f00
0e00
0000
0000
1ffc
1ffc
0000
0000
ENDCHAR
STARTCHAR dec_pi
ENCODING 540
SWIDTH 563 0
DWIDTH 14 0
BBX 14 24 0 -6
BITMAP
0000
0000
0000
0000
0000
0000
7ffc
7ffc
1c70
1c70
1c70
1c70
1c70
1c70
1c70
3c70
3c70
3870
0000
0000
0000
0000
0000
0000
ENDCHAR
STARTCHAR dec_notequal
ENCODING 541
SWIDTH 563 0
DWIDTH 14 0
BBX 14 24 0 -6
BITMAP
0000
0000
0000
0038
0038
0078
00f0
00e0
3ff8
3ff8
03c0
0380
3ff8
3ff8
0f00
0e00
0e00
1e00
1c00
0000
0000
0000
0000
0000
ENDCHAR
STARTCHAR dec_sterling
ENCODING 542
SWIDTH 563 0
DWIDTH 14 0
BBX 14 24 0 -6
BITMAP
0000
0000
0380
07c0
0fe0
0ee0
0e00
0e00
3fe0
3fe0
0e00
0e00
0e00
0e00
0e38
1f78
3ff0
3be0
0000
0000
0000
0000
0000
0000
ENDCHAR
STARTCHAR dec_periodcentered
ENCODING 543
SWIDTH 563 0
DWIDTH 14 0
BBX 14 24 0 -6
BITMAP
0000
0000
0000
0000
0000
0000
0000
0000
0380
0380
0380
0380
0000
0000
0000
0000
0000
0000
0000
0000
0000
0000
0000
0000
ENDCHAR
ENDFONT
